<svg xmlns="http://www.w3.org/2000/svg" xmlns:xlink="http://www.w3.org/1999/xlink" width="500" zoomAndPan="magnify" viewBox="0 0 375 374.999991" height="500" preserveAspectRatio="xMidYMid meet" version="1.0"><defs><clipPath id="43521b46ec"><path d="M 60.488281 60.488281 L 314.738281 60.488281 L 314.738281 314.738281 L 60.488281 314.738281 Z M 60.488281 60.488281 " clip-rule="nonzero"/></clipPath><clipPath id="49cdf48926"><path d="M 80 80 L 295 80 L 295 295 L 80 295 Z M 80 80 " clip-rule="nonzero"/></clipPath><clipPath id="e3983747ef"><path d="M 94.277344 67.914062 L 307.152344 94.289062 L 280.777344 307.160156 L 67.90625 280.785156 Z M 94.277344 67.914062 " clip-rule="nonzero"/></clipPath><clipPath id="6402d58536"><path d="M 94.277344 67.914062 L 307.152344 94.289062 L 280.777344 307.160156 L 67.90625 280.785156 Z M 94.277344 67.914062 " clip-rule="nonzero"/></clipPath><clipPath id="d0142a69b6"><path d="M 162.632812 219.117188 L 212 219.117188 L 212 287 L 162.632812 287 Z M 162.632812 219.117188 " clip-rule="nonzero"/></clipPath><clipPath id="d9116358e5"><path d="M 133 118 L 243 118 L 243 228 L 133 228 Z M 133 118 " clip-rule="nonzero"/></clipPath><clipPath id="cfa1ec0c0c"><path d="M 229.078125 114.324219 L 249.230469 134.476562 L 145.816406 237.890625 L 125.664062 217.738281 Z M 229.078125 114.324219 " clip-rule="nonzero"/></clipPath><clipPath id="ca1c90d39b"><path d="M 229.078125 114.324219 L 293.246094 178.492188 L 189.300781 282.4375 L 125.132812 218.269531 Z M 229.078125 114.324219 " clip-rule="nonzero"/></clipPath><clipPath id="459470f826"><path d="M 141 118 L 241 118 L 241 228 L 141 228 Z M 141 118 " clip-rule="nonzero"/></clipPath><clipPath id="e34a0d48db"><path d="M 125.585938 134.648438 L 145.738281 114.496094 L 249.15625 217.910156 L 229.003906 238.0625 Z M 125.585938 134.648438 " clip-rule="nonzero"/></clipPath><clipPath id="04bc4780ca"><path d="M 107.527344 152.710938 L 171.695312 88.539062 L 275.640625 192.484375 L 211.472656 256.65625 Z M 107.527344 152.710938 " clip-rule="nonzero"/></clipPath></defs><g clip-path="url(#43521b46ec)"><path fill="#9e0d17" d="M 314.5 187.492188 C 314.5 189.570312 314.449219 191.648438 314.347656 193.726562 C 314.246094 195.800781 314.089844 197.875 313.886719 199.941406 C 313.683594 202.011719 313.429688 204.074219 313.125 206.128906 C 312.820312 208.183594 312.464844 210.234375 312.058594 212.269531 C 311.652344 214.308594 311.199219 216.335938 310.691406 218.351562 C 310.1875 220.371094 309.632812 222.371094 309.03125 224.363281 C 308.425781 226.351562 307.773438 228.324219 307.074219 230.28125 C 306.375 232.238281 305.628906 234.175781 304.832031 236.097656 C 304.035156 238.015625 303.195312 239.917969 302.304688 241.796875 C 301.417969 243.675781 300.484375 245.53125 299.503906 247.363281 C 298.523438 249.195312 297.5 251.003906 296.429688 252.789062 C 295.363281 254.570312 294.25 256.324219 293.09375 258.054688 C 291.941406 259.78125 290.742188 261.480469 289.503906 263.152344 C 288.265625 264.820312 286.988281 266.457031 285.671875 268.066406 C 284.351562 269.671875 282.996094 271.246094 281.597656 272.785156 C 280.203125 274.324219 278.769531 275.832031 277.300781 277.300781 C 275.832031 278.769531 274.324219 280.203125 272.785156 281.597656 C 271.246094 282.996094 269.671875 284.351562 268.066406 285.671875 C 266.457031 286.988281 264.820312 288.265625 263.152344 289.503906 C 261.480469 290.742188 259.78125 291.941406 258.054688 293.09375 C 256.324219 294.25 254.570312 295.363281 252.789062 296.429688 C 251.003906 297.5 249.195312 298.523438 247.363281 299.503906 C 245.53125 300.484375 243.675781 301.417969 241.796875 302.304688 C 239.917969 303.195312 238.015625 304.035156 236.097656 304.832031 C 234.175781 305.628906 232.238281 306.375 230.28125 307.074219 C 228.324219 307.773438 226.351562 308.425781 224.363281 309.03125 C 222.371094 309.632812 220.371094 310.1875 218.351562 310.691406 C 216.335938 311.199219 214.308594 311.652344 212.269531 312.058594 C 210.234375 312.464844 208.183594 312.820312 206.128906 313.125 C 204.074219 313.429688 202.011719 313.683594 199.941406 313.886719 C 197.875 314.089844 195.800781 314.246094 193.726562 314.347656 C 191.648438 314.449219 189.570312 314.5 187.492188 314.5 C 185.414062 314.5 183.335938 314.449219 181.261719 314.347656 C 179.1875 314.246094 177.113281 314.089844 175.042969 313.886719 C 172.976562 313.683594 170.914062 313.429688 168.859375 313.125 C 166.800781 312.820312 164.753906 312.464844 162.714844 312.058594 C 160.675781 311.652344 158.648438 311.199219 156.632812 310.691406 C 154.617188 310.1875 152.613281 309.632812 150.625 309.03125 C 148.636719 308.425781 146.664062 307.773438 144.707031 307.074219 C 142.75 306.375 140.8125 305.628906 138.890625 304.832031 C 136.96875 304.035156 135.070312 303.195312 133.191406 302.304688 C 131.3125 301.417969 129.457031 300.484375 127.625 299.503906 C 125.789062 298.523438 123.980469 297.5 122.199219 296.429688 C 120.417969 295.363281 118.660156 294.25 116.933594 293.09375 C 115.203125 291.941406 113.503906 290.742188 111.835938 289.503906 C 110.167969 288.265625 108.527344 286.988281 106.921875 285.671875 C 105.316406 284.351562 103.742188 282.996094 102.203125 281.597656 C 100.660156 280.203125 99.15625 278.769531 97.6875 277.300781 C 96.21875 275.832031 94.785156 274.324219 93.386719 272.785156 C 91.992188 271.246094 90.636719 269.671875 89.316406 268.066406 C 87.996094 266.457031 86.71875 264.820312 85.480469 263.152344 C 84.242188 261.480469 83.046875 259.78125 81.890625 258.054688 C 80.738281 256.324219 79.625 254.570312 78.558594 252.789062 C 77.488281 251.003906 76.464844 249.195312 75.484375 247.363281 C 74.503906 245.53125 73.570312 243.675781 72.679688 241.796875 C 71.792969 239.917969 70.949219 238.015625 70.15625 236.097656 C 69.359375 234.175781 68.613281 232.238281 67.910156 230.28125 C 67.210938 228.324219 66.558594 226.351562 65.957031 224.363281 C 65.351562 222.371094 64.800781 220.371094 64.292969 218.351562 C 63.789062 216.335938 63.332031 214.308594 62.929688 212.269531 C 62.523438 210.234375 62.167969 208.183594 61.863281 206.128906 C 61.558594 204.074219 61.304688 202.011719 61.097656 199.941406 C 60.894531 197.875 60.742188 195.800781 60.640625 193.726562 C 60.539062 191.648438 60.488281 189.570312 60.488281 187.492188 C 60.488281 185.414062 60.539062 183.335938 60.640625 181.261719 C 60.742188 179.1875 60.894531 177.113281 61.097656 175.042969 C 61.304688 172.976562 61.558594 170.914062 61.863281 168.859375 C 62.167969 166.800781 62.523438 164.753906 62.929688 162.714844 C 63.332031 160.675781 63.789062 158.648438 64.292969 156.632812 C 64.800781 154.617188 65.351562 152.613281 65.957031 150.625 C 66.558594 148.636719 67.210938 146.664062 67.910156 144.707031 C 68.613281 142.75 69.359375 140.8125 70.15625 138.890625 C 70.949219 136.96875 71.792969 135.070312 72.679688 133.191406 C 73.570312 131.3125 74.503906 129.457031 75.484375 127.625 C 76.464844 125.789062 77.488281 123.980469 78.558594 122.199219 C 79.625 120.417969 80.738281 118.660156 81.890625 116.933594 C 83.046875 115.203125 84.242188 113.503906 85.480469 111.835938 C 86.71875 110.167969 87.996094 108.527344 89.316406 106.921875 C 90.636719 105.316406 91.992188 103.742188 93.386719 102.203125 C 94.785156 100.660156 96.21875 99.15625 97.6875 97.6875 C 99.15625 96.21875 100.660156 94.785156 102.203125 93.386719 C 103.742188 91.992188 105.316406 90.636719 106.921875 89.316406 C 108.527344 87.996094 110.167969 86.71875 111.835938 85.480469 C 113.503906 84.242188 115.203125 83.046875 116.933594 81.890625 C 118.660156 80.738281 120.417969 79.625 122.199219 78.558594 C 123.980469 77.488281 125.789062 76.464844 127.625 75.484375 C 129.457031 74.503906 131.3125 73.570312 133.191406 72.679688 C 135.070312 71.792969 136.96875 70.949219 138.890625 70.15625 C 140.8125 69.359375 142.75 68.613281 144.707031 67.910156 C 146.664062 67.210938 148.636719 66.558594 150.625 65.957031 C 152.613281 65.351562 154.617188 64.800781 156.632812 64.292969 C 158.648438 63.789062 160.675781 63.332031 162.714844 62.929688 C 164.753906 62.523438 166.800781 62.167969 168.859375 61.863281 C 170.914062 61.558594 172.976562 61.304688 175.042969 61.097656 C 177.113281 60.894531 179.1875 60.742188 181.261719 60.640625 C 183.335938 60.539062 185.414062 60.488281 187.492188 60.488281 C 189.570312 60.488281 191.648438 60.539062 193.726562 60.640625 C 195.800781 60.742188 197.875 60.894531 199.941406 61.097656 C 202.011719 61.304688 204.074219 61.558594 206.128906 61.863281 C 208.183594 62.167969 210.234375 62.523438 212.269531 62.929688 C 214.308594 63.332031 216.335938 63.789062 218.351562 64.292969 C 220.371094 64.800781 222.371094 65.351562 224.363281 65.957031 C 226.351562 66.558594 228.324219 67.210938 230.28125 67.910156 C 232.238281 68.613281 234.175781 69.359375 236.097656 70.15625 C 238.015625 70.949219 239.917969 71.792969 241.796875 72.679688 C 243.675781 73.570312 245.53125 74.503906 247.363281 75.484375 C 249.195312 76.464844 251.003906 77.488281 252.789062 78.558594 C 254.570312 79.625 256.324219 80.738281 258.054688 81.890625 C 259.78125 83.046875 261.480469 84.242188 263.152344 85.480469 C 264.820312 86.71875 266.457031 87.996094 268.066406 89.316406 C 269.671875 90.636719 271.246094 91.992188 272.785156 93.386719 C 274.324219 94.785156 275.832031 96.21875 277.300781 97.6875 C 278.769531 99.15625 280.203125 100.660156 281.597656 102.203125 C 282.996094 103.742188 284.351562 105.316406 285.671875 106.921875 C 286.988281 108.527344 288.265625 110.167969 289.503906 111.835938 C 290.742188 113.503906 291.941406 115.203125 293.09375 116.933594 C 294.25 118.660156 295.363281 120.417969 296.429688 122.199219 C 297.5 123.980469 298.523438 125.789062 299.503906 127.625 C 300.484375 129.457031 301.417969 131.3125 302.304688 133.191406 C 303.195312 135.070312 304.035156 136.96875 304.832031 138.890625 C 305.628906 140.8125 306.375 142.75 307.074219 144.707031 C 307.773438 146.664062 308.425781 148.636719 309.03125 150.625 C 309.632812 152.613281 310.1875 154.617188 310.691406 156.632812 C 311.199219 158.648438 311.652344 160.675781 312.058594 162.714844 C 312.464844 164.753906 312.820312 166.800781 313.125 168.859375 C 313.429688 170.914062 313.683594 172.976562 313.886719 175.042969 C 314.089844 177.113281 314.246094 179.1875 314.347656 181.261719 C 314.449219 183.335938 314.5 185.414062 314.5 187.492188 Z M 314.5 187.492188 " fill-opacity="1" fill-rule="nonzero"/></g><g clip-path="url(#49cdf48926)"><g clip-path="url(#e3983747ef)"><g clip-path="url(#6402d58536)"><path fill="#dbba0d" d="M 168.1875 293.042969 C 164.105469 292.300781 160.03125 291.3125 156.078125 290.105469 L 157.285156 286.140625 C 161.085938 287.300781 165.003906 288.25 168.929688 288.960938 L 168.1875 293.039062 Z M 180.554688 294.566406 L 180.824219 290.429688 C 184.804688 290.691406 188.835938 290.722656 192.804688 290.519531 L 193.015625 294.660156 C 188.890625 294.867188 184.695312 294.839844 180.554688 294.566406 Z M 144.386719 285.777344 C 140.59375 284.117188 136.855469 282.210938 133.277344 280.113281 L 135.375 276.535156 C 138.8125 278.554688 142.40625 280.386719 146.050781 281.984375 Z M 205.402344 293.304688 L 204.710938 289.21875 C 208.636719 288.554688 212.5625 287.648438 216.386719 286.527344 L 217.550781 290.507812 C 213.578125 291.671875 209.488281 292.613281 205.402344 293.304688 Z M 122.90625 273.1875 C 119.601562 270.691406 116.40625 267.972656 113.414062 265.105469 L 116.277344 262.109375 C 119.15625 264.863281 122.230469 267.480469 125.402344 269.878906 Z M 229.285156 286.316406 L 227.664062 282.503906 C 231.324219 280.945312 234.9375 279.160156 238.398438 277.191406 L 240.449219 280.792969 C 236.847656 282.847656 233.09375 284.703125 229.285156 286.320312 Z M 104.921875 255.980469 C 102.28125 252.792969 99.792969 249.414062 97.539062 245.941406 L 101.015625 243.679688 C 103.183594 247.019531 105.570312 250.269531 108.109375 253.335938 L 104.917969 255.980469 Z M 250.902344 274.007812 L 248.453125 270.664062 C 251.660156 268.308594 254.769531 265.738281 257.6875 263.027344 L 260.511719 266.0625 C 257.476562 268.882812 254.246094 271.558594 250.90625 274.007812 Z M 91.367188 235.113281 C 89.527344 231.402344 87.886719 227.542969 86.492188 223.648438 L 90.398438 222.253906 C 91.738281 225.996094 93.3125 229.703125 95.085938 233.273438 Z M 269.128906 257.058594 L 265.972656 254.371094 C 268.558594 251.335938 270.992188 248.121094 273.203125 244.8125 L 276.648438 247.117188 C 274.347656 250.558594 271.816406 253.902344 269.125 257.058594 Z M 82.988281 211.6875 C 82.054688 207.648438 81.355469 203.515625 80.898438 199.398438 L 85.019531 198.945312 C 85.457031 202.898438 86.132812 206.871094 87.023438 210.757812 Z M 282.96875 236.363281 L 279.277344 234.480469 C 281.089844 230.929688 282.707031 227.238281 284.09375 223.503906 L 287.980469 224.945312 C 286.539062 228.832031 284.855469 232.675781 282.96875 236.363281 Z M 80.261719 186.953125 C 80.292969 182.824219 80.5625 178.644531 81.070312 174.519531 L 85.183594 175.03125 C 84.695312 178.992188 84.4375 183.011719 84.410156 186.984375 L 80.265625 186.953125 Z M 291.625 213.027344 L 287.597656 212.046875 C 288.535156 208.191406 289.261719 204.222656 289.75 200.261719 L 289.777344 200.042969 C 289.777344 200.042969 293.894531 200.542969 293.894531 200.542969 L 293.867188 200.769531 C 293.355469 204.890625 292.601562 209.011719 291.628906 213.023438 Z M 87.328125 163.234375 L 83.296875 162.257812 C 84.269531 158.226562 85.492188 154.214844 86.925781 150.335938 L 90.816406 151.773438 C 89.4375 155.5 88.261719 159.355469 87.328125 163.234375 Z M 290.542969 188.082031 C 290.570312 184.09375 290.355469 180.070312 289.917969 176.121094 L 294.039062 175.660156 C 294.496094 179.773438 294.714844 183.960938 294.691406 188.105469 L 290.546875 188.082031 Z M 95.621094 140.792969 L 91.929688 138.910156 C 93.808594 135.21875 95.929688 131.601562 98.230469 128.148438 L 101.679688 130.445312 C 99.46875 133.765625 97.429688 137.242188 95.621094 140.789062 Z M 287.898438 164.308594 C 287 160.433594 285.863281 156.566406 284.511719 152.816406 L 288.414062 151.414062 C 289.816406 155.3125 291 159.335938 291.9375 163.371094 Z M 108.902344 120.886719 L 105.742188 118.199219 C 108.421875 115.046875 111.320312 112.015625 114.351562 109.191406 L 117.179688 112.222656 C 114.261719 114.941406 111.476562 117.855469 108.902344 120.886719 Z M 279.816406 141.800781 C 278.042969 138.238281 276.046875 134.738281 273.867188 131.402344 L 277.34375 129.136719 C 279.605469 132.609375 281.6875 136.25 283.527344 139.957031 Z M 126.402344 104.570312 L 123.949219 101.234375 C 127.285156 98.777344 130.800781 96.492188 134.394531 94.441406 L 136.449219 98.042969 C 132.992188 100.015625 129.613281 102.210938 126.402344 104.574219 Z M 266.757812 121.75 C 264.214844 118.6875 261.464844 115.734375 258.582031 112.988281 L 261.445312 109.988281 C 264.441406 112.851562 267.296875 115.914062 269.945312 119.105469 L 266.753906 121.75 Z M 147.179688 92.714844 L 145.554688 88.902344 C 149.363281 87.277344 153.3125 85.863281 157.277344 84.695312 L 158.449219 88.671875 C 154.632812 89.796875 150.84375 91.15625 147.179688 92.714844 Z M 249.453125 105.226562 C 246.269531 102.828125 242.910156 100.589844 239.476562 98.582031 L 241.570312 95 C 245.144531 97.089844 248.632812 99.417969 251.945312 101.914062 L 249.453125 105.222656 Z M 170.121094 85.972656 L 169.425781 81.886719 C 173.503906 81.191406 177.671875 80.730469 181.8125 80.515625 L 182.027344 84.660156 C 178.050781 84.863281 174.042969 85.308594 170.121094 85.972656 Z M 228.792969 93.148438 C 225.148438 91.554688 221.367188 90.160156 217.554688 89.003906 L 218.761719 85.035156 C 222.726562 86.242188 226.660156 87.695312 230.453125 89.351562 L 228.792969 93.152344 Z M 194.011719 84.734375 L 194.277344 80.597656 C 196.390625 80.734375 198.53125 80.9375 200.632812 81.199219 L 200.652344 81.203125 C 202.652344 81.449219 204.671875 81.757812 206.644531 82.113281 L 205.90625 86.191406 C 204.003906 85.847656 202.066406 85.554688 200.140625 85.316406 L 200.121094 85.3125 C 198.09375 85.0625 196.039062 84.871094 194.007812 84.738281 Z M 194.011719 84.734375 " fill-opacity="1" fill-rule="nonzero"/></g></g></g><g clip-path="url(#d0142a69b6)"><path fill="#dbba0d" d="M 187.382812 219.003906 C 186.582031 219.003906 185.78125 219.042969 184.984375 219.125 C 184.183594 219.203125 183.390625 219.320312 182.605469 219.480469 C 181.820312 219.636719 181.042969 219.832031 180.277344 220.066406 C 179.507812 220.296875 178.753906 220.566406 178.015625 220.875 C 177.273438 221.183594 176.550781 221.523438 175.84375 221.902344 C 175.136719 222.28125 174.449219 222.695312 173.78125 223.140625 C 173.117188 223.585938 172.472656 224.0625 171.851562 224.570312 C 171.234375 225.078125 170.640625 225.617188 170.074219 226.183594 C 169.507812 226.75 168.96875 227.34375 168.460938 227.964844 C 167.949219 228.585938 167.472656 229.226562 167.027344 229.894531 C 166.582031 230.5625 166.171875 231.246094 165.792969 231.953125 C 165.414062 232.660156 165.070312 233.386719 164.765625 234.125 C 164.457031 234.867188 164.1875 235.621094 163.953125 236.386719 C 163.71875 237.15625 163.523438 237.929688 163.367188 238.71875 C 163.210938 239.503906 163.09375 240.296875 163.011719 241.09375 C 162.933594 241.890625 162.894531 242.691406 162.894531 243.492188 C 162.894531 262.210938 185.222656 284.757812 186.175781 285.707031 L 187.382812 286.914062 L 188.589844 285.707031 C 189.539062 284.757812 211.871094 262.207031 211.871094 243.492188 C 211.871094 242.691406 211.832031 241.890625 211.75 241.09375 C 211.671875 240.296875 211.554688 239.503906 211.394531 238.71875 C 211.238281 237.929688 211.042969 237.15625 210.8125 236.386719 C 210.578125 235.621094 210.308594 234.867188 210 234.125 C 209.691406 233.386719 209.351562 232.660156 208.972656 231.953125 C 208.59375 231.246094 208.179688 230.5625 207.734375 229.894531 C 207.289062 229.226562 206.8125 228.585938 206.304688 227.964844 C 205.796875 227.34375 205.257812 226.75 204.691406 226.183594 C 204.125 225.617188 203.53125 225.078125 202.910156 224.570312 C 202.289062 224.0625 201.648438 223.585938 200.980469 223.140625 C 200.316406 222.695312 199.628906 222.28125 198.921875 221.902344 C 198.214844 221.523438 197.488281 221.183594 196.75 220.875 C 196.007812 220.566406 195.253906 220.296875 194.488281 220.066406 C 193.722656 219.832031 192.945312 219.636719 192.15625 219.480469 C 191.371094 219.320312 190.578125 219.203125 189.78125 219.125 C 188.984375 219.042969 188.183594 219.003906 187.382812 219.003906 Z M 187.382812 256.59375 C 186.523438 256.59375 185.671875 256.507812 184.828125 256.339844 C 183.984375 256.171875 183.164062 255.925781 182.371094 255.59375 C 181.574219 255.265625 180.820312 254.863281 180.105469 254.382812 C 179.390625 253.90625 178.726562 253.363281 178.121094 252.753906 C 177.511719 252.148438 176.96875 251.484375 176.492188 250.769531 C 176.011719 250.054688 175.609375 249.300781 175.28125 248.507812 C 174.949219 247.710938 174.703125 246.890625 174.535156 246.046875 C 174.367188 245.207031 174.28125 244.351562 174.28125 243.492188 C 174.28125 242.632812 174.367188 241.78125 174.535156 240.9375 C 174.703125 240.09375 174.949219 239.273438 175.28125 238.480469 C 175.609375 237.6875 176.011719 236.929688 176.492188 236.214844 C 176.96875 235.5 177.511719 234.839844 178.121094 234.230469 C 178.726562 233.621094 179.390625 233.078125 180.105469 232.601562 C 180.820312 232.125 181.574219 231.71875 182.371094 231.390625 C 183.164062 231.0625 183.984375 230.8125 184.828125 230.644531 C 185.671875 230.476562 186.523438 230.394531 187.382812 230.394531 C 188.242188 230.394531 189.09375 230.476562 189.9375 230.644531 C 190.78125 230.8125 191.601562 231.0625 192.394531 231.390625 C 193.1875 231.71875 193.945312 232.125 194.660156 232.601562 C 195.375 233.078125 196.035156 233.621094 196.644531 234.230469 C 197.253906 234.839844 197.796875 235.5 198.273438 236.214844 C 198.75 236.929688 199.15625 237.6875 199.484375 238.480469 C 199.8125 239.273438 200.0625 240.09375 200.230469 240.9375 C 200.398438 241.78125 200.480469 242.632812 200.480469 243.492188 C 200.480469 244.351562 200.394531 245.203125 200.226562 246.046875 C 200.058594 246.890625 199.808594 247.710938 199.480469 248.503906 C 199.152344 249.296875 198.746094 250.050781 198.269531 250.765625 C 197.792969 251.480469 197.25 252.144531 196.640625 252.75 C 196.03125 253.359375 195.371094 253.902344 194.65625 254.378906 C 193.941406 254.859375 193.1875 255.261719 192.390625 255.589844 C 191.597656 255.921875 190.78125 256.167969 189.9375 256.339844 C 189.09375 256.507812 188.242188 256.589844 187.382812 256.59375 Z M 187.382812 256.59375 " fill-opacity="1" fill-rule="nonzero"/></g><g clip-path="url(#d9116358e5)"><g clip-path="url(#cfa1ec0c0c)"><g clip-path="url(#ca1c90d39b)"><path fill="#dbba0d" d="M 242.6875 130.429688 C 242.6875 130.429688 242.0625 129.808594 241.257812 130.648438 L 214.5625 157.273438 C 213.507812 158.269531 212.621094 157.453125 212.621094 157.453125 C 212.515625 157.320312 212.445312 157.191406 212.398438 157.058594 L 226.324219 140.511719 L 238.191406 127.394531 C 238.71875 126.738281 238.417969 126.339844 238.304688 126.226562 L 238.265625 126.191406 C 237.695312 125.667969 237.15625 126.167969 237.15625 126.167969 L 209.832031 153.113281 C 209.070312 154.105469 208.179688 153.273438 208.066406 153.160156 L 208.054688 153.148438 C 207.925781 153.011719 207.839844 152.871094 207.777344 152.742188 L 221.265625 138.007812 L 235.035156 124.046875 C 235.035156 124.046875 235.535156 123.507812 235.011719 122.9375 L 234.976562 122.898438 C 234.863281 122.785156 234.464844 122.484375 233.808594 123.011719 L 205.496094 148.628906 C 205.496094 148.628906 204.625 149.269531 203.75 148.582031 C 203.75 148.582031 202.933594 147.695312 203.925781 146.640625 L 230.554688 119.945312 C 231.398438 119.140625 230.773438 118.515625 230.773438 118.515625 C 230.285156 118.027344 229.5625 118.667969 229.5625 118.667969 L 200.390625 143.386719 C 198.507812 145.035156 197.015625 147.28125 195.984375 149.535156 C 195.15625 151.347656 194.492188 153.1875 194.503906 155.199219 C 194.515625 157.011719 194.929688 158.878906 194.472656 160.679688 C 193.90625 162.941406 192.511719 164.957031 190.90625 166.617188 L 190.878906 166.589844 C 190.878906 166.589844 182.535156 175.957031 146.140625 208.570312 C 146.140625 208.570312 131.605469 219.707031 134.285156 226.878906 L 134.191406 226.972656 C 134.273438 227.027344 134.355469 227.078125 134.4375 227.128906 C 134.488281 227.210938 134.539062 227.292969 134.59375 227.375 L 134.6875 227.28125 C 134.820312 227.351562 134.957031 227.40625 135.097656 227.457031 L 135.1875 227.492188 C 135.328125 227.539062 135.46875 227.578125 135.609375 227.609375 L 135.660156 227.621094 C 135.796875 227.644531 135.9375 227.664062 136.078125 227.675781 L 136.144531 227.683594 C 136.296875 227.699219 136.453125 227.699219 136.613281 227.695312 L 136.664062 227.695312 C 137 227.683594 137.34375 227.636719 137.695312 227.5625 L 137.710938 227.558594 C 144.050781 226.179688 152.804688 214.953125 152.804688 214.953125 C 182.183594 182.304688 193.015625 172.417969 194.726562 170.90625 L 194.753906 170.929688 C 195.550781 170.132812 196.335938 169.484375 197.125 168.960938 C 197.25 168.875 197.375 168.800781 197.5 168.722656 C 197.550781 168.691406 197.601562 168.660156 197.648438 168.628906 C 197.769531 168.558594 197.894531 168.492188 198.015625 168.421875 C 198.070312 168.394531 198.125 168.363281 198.179688 168.332031 C 198.570312 168.128906 198.964844 167.949219 199.363281 167.796875 C 199.4375 167.765625 199.511719 167.738281 199.585938 167.710938 C 199.695312 167.671875 199.804688 167.632812 199.917969 167.597656 C 200.003906 167.566406 200.085938 167.539062 200.171875 167.515625 C 200.28125 167.480469 200.386719 167.449219 200.496094 167.417969 C 200.632812 167.382812 200.769531 167.347656 200.914062 167.308594 C 201.046875 167.28125 201.175781 167.25 201.3125 167.222656 C 201.425781 167.199219 201.535156 167.175781 201.648438 167.152344 C 201.75 167.132812 201.847656 167.117188 201.945312 167.101562 C 202.066406 167.078125 202.191406 167.0625 202.316406 167.042969 C 202.40625 167.027344 202.496094 167.015625 202.585938 167.003906 C 202.792969 166.976562 203.003906 166.953125 203.21875 166.933594 C 203.269531 166.925781 203.328125 166.921875 203.386719 166.917969 C 203.5625 166.898438 203.738281 166.886719 203.921875 166.871094 C 204.003906 166.867188 204.085938 166.863281 204.167969 166.855469 C 204.339844 166.84375 204.507812 166.835938 204.675781 166.832031 C 204.753906 166.828125 204.828125 166.820312 204.90625 166.820312 C 205.148438 166.808594 205.398438 166.804688 205.652344 166.796875 C 207.855469 166.753906 209.855469 166.089844 211.824219 165.136719 C 212.183594 164.964844 212.542969 164.777344 212.902344 164.585938 L 212.925781 164.570312 L 212.925781 164.574219 C 214.734375 163.597656 216.5 162.367188 217.816406 160.8125 L 242.53125 131.640625 C 242.53125 131.640625 243.175781 130.917969 242.6875 130.429688 Z M 205.542969 141.902344 L 202.367188 145.085938 L 202.328125 145.128906 C 200.75 146.800781 201.035156 148.882812 202.132812 150.074219 L 202.195312 150.140625 C 202.253906 150.199219 202.320312 150.257812 202.390625 150.3125 C 203.894531 151.496094 205.730469 151.1875 206.800781 150.402344 C 206.859375 150.359375 206.917969 150.3125 206.972656 150.261719 L 207.503906 149.78125 L 206.15625 151.257812 C 205.550781 151.914062 205.40625 152.867188 205.785156 153.675781 C 205.953125 154.035156 206.179688 154.367188 206.445312 154.648438 L 206.511719 154.714844 C 206.863281 155.070312 207.832031 155.878906 209.195312 155.789062 C 210.0625 155.730469 210.859375 155.308594 211.464844 154.59375 L 212.242188 153.820312 L 210.710938 155.644531 C 210.199219 156.253906 210.054688 157.097656 210.339844 157.84375 C 210.476562 158.199219 210.667969 158.535156 210.90625 158.832031 C 210.953125 158.890625 211.007812 158.953125 211.0625 159.007812 L 211.128906 159.070312 C 212.320312 160.167969 214.402344 160.453125 216.074219 158.875 L 216.117188 158.832031 L 219.296875 155.664062 C 216.769531 158.648438 216.25 159.257812 216.136719 159.390625 C 215.15625 160.546875 213.726562 161.640625 211.878906 162.636719 L 211.839844 162.65625 C 211.457031 162.863281 211.148438 163.023438 210.867188 163.15625 C 208.878906 164.121094 207.257812 164.5625 205.609375 164.597656 C 205.34375 164.601562 205.082031 164.609375 204.824219 164.621094 C 204.746094 164.625 204.667969 164.628906 204.589844 164.632812 L 204.582031 164.632812 C 204.398438 164.640625 204.214844 164.648438 204.027344 164.660156 L 203.824219 164.671875 L 203.789062 164.675781 L 203.761719 164.675781 C 203.5625 164.691406 203.371094 164.707031 203.179688 164.722656 L 203.140625 164.730469 C 203.089844 164.730469 203.039062 164.734375 202.992188 164.742188 C 202.761719 164.765625 202.535156 164.792969 202.292969 164.824219 C 202.1875 164.835938 202.085938 164.851562 201.980469 164.867188 C 201.855469 164.886719 201.726562 164.90625 201.601562 164.929688 C 201.480469 164.945312 201.363281 164.96875 201.242188 164.992188 C 201.109375 165.015625 200.976562 165.042969 200.839844 165.074219 C 200.691406 165.105469 200.539062 165.136719 200.386719 165.175781 C 200.226562 165.214844 200.066406 165.253906 199.894531 165.300781 C 199.773438 165.335938 199.65625 165.371094 199.535156 165.410156 C 199.429688 165.441406 199.328125 165.472656 199.230469 165.503906 C 199.101562 165.546875 198.972656 165.59375 198.84375 165.640625 L 198.816406 165.648438 C 198.730469 165.679688 198.648438 165.714844 198.574219 165.742188 C 198.097656 165.925781 197.621094 166.140625 197.152344 166.386719 L 197.03125 166.453125 L 196.949219 166.496094 C 196.808594 166.574219 196.667969 166.65625 196.519531 166.742188 L 196.390625 166.820312 L 196.347656 166.847656 C 196.214844 166.929688 196.085938 167.007812 195.953125 167.09375 L 195.90625 167.128906 C 195.078125 167.675781 194.28125 168.320312 193.484375 169.089844 C 193.410156 169.140625 193.339844 169.195312 193.273438 169.253906 C 191.382812 170.925781 180.484375 180.902344 151.171875 213.480469 C 151.136719 213.515625 151.101562 213.558594 151.070312 213.597656 C 148.773438 216.539062 141.832031 224.375 137.28125 225.398438 L 137.234375 225.410156 C 137.007812 225.460938 136.789062 225.488281 136.589844 225.496094 L 136.550781 225.496094 C 136.46875 225.5 136.398438 225.496094 136.335938 225.492188 L 136.265625 225.484375 L 136.183594 225.476562 C 135.546875 221.082031 143.367188 213.472656 147.476562 210.316406 C 147.523438 210.285156 147.566406 210.246094 147.609375 210.210938 C 180.507812 180.730469 190.46875 170.28125 192.226562 168.375 C 192.320312 168.308594 192.40625 168.230469 192.488281 168.148438 C 194.617188 165.945312 196.003906 163.613281 196.605469 161.21875 C 197.007812 159.636719 196.890625 158.105469 196.789062 156.757812 C 196.75 156.203125 196.707031 155.679688 196.703125 155.183594 C 196.695312 153.511719 197.3125 151.921875 197.984375 150.453125 C 198.984375 148.265625 200.347656 146.347656 201.824219 145.050781 L 205.542969 141.902344 " fill-opacity="1" fill-rule="nonzero"/></g></g></g><g clip-path="url(#459470f826)"><g clip-path="url(#e34a0d48db)"><g clip-path="url(#04bc4780ca)"><path fill="#dbba0d" d="M 141.511719 118.714844 C 136.875 135.074219 179.8125 177.09375 179.8125 177.09375 C 185.648438 175.460938 189.617188 179.890625 189.617188 179.890625 C 202.921875 192.027344 223.460938 218.402344 223.460938 218.402344 C 232.5625 229.835938 240.792969 226.980469 240.792969 226.980469 C 240.808594 226.691406 240.816406 226.402344 240.8125 226.117188 C 240.8125 226.023438 240.804688 225.933594 240.800781 225.835938 C 240.796875 225.644531 240.789062 225.453125 240.773438 225.257812 C 240.765625 225.160156 240.75 225.0625 240.742188 224.960938 C 240.722656 224.777344 240.703125 224.589844 240.675781 224.40625 C 240.664062 224.3125 240.644531 224.222656 240.628906 224.132812 C 240.597656 223.9375 240.566406 223.75 240.523438 223.558594 C 240.507812 223.476562 240.488281 223.398438 240.46875 223.320312 C 240.425781 223.117188 240.375 222.914062 240.324219 222.714844 C 240.308594 222.652344 240.285156 222.585938 240.269531 222.523438 C 240.207031 222.308594 240.144531 222.089844 240.070312 221.878906 C 240.058594 221.832031 240.039062 221.78125 240.023438 221.734375 C 239.949219 221.507812 239.863281 221.28125 239.777344 221.054688 L 239.738281 220.957031 C 239.648438 220.71875 239.550781 220.484375 239.449219 220.25 L 239.433594 220.21875 C 236.878906 214.425781 231.667969 210.195312 231.667969 210.195312 C 219.648438 202.578125 197.785156 180.589844 197.785156 180.589844 C 194.691406 177.292969 192.605469 174.644531 191.191406 172.539062 C 188.722656 168.863281 188.328125 166.859375 188.300781 166.019531 L 188.296875 166.011719 L 188.296875 165.90625 C 188.296875 165.847656 188.300781 165.796875 188.304688 165.75 L 188.304688 165.746094 L 188.3125 165.691406 L 188.3125 165.664062 L 188.316406 165.628906 L 188.328125 165.570312 L 188.332031 165.554688 L 188.332031 165.546875 L 188.335938 165.539062 Z M 143.636719 123.953125 L 186.125 166.441406 C 186.253906 167.835938 186.953125 170.160156 189.332031 173.714844 L 189.363281 173.765625 C 191.035156 176.253906 193.328125 179.054688 196.179688 182.097656 L 196.226562 182.140625 C 197.121094 183.042969 218.257812 204.25 230.367188 211.972656 C 231.03125 212.535156 235.28125 216.253906 237.421875 221.105469 L 237.429688 221.128906 L 237.429688 221.132812 C 237.519531 221.339844 237.609375 221.546875 237.6875 221.753906 L 237.699219 221.777344 L 237.726562 221.847656 C 237.800781 222.042969 237.871094 222.242188 237.9375 222.4375 L 237.964844 222.507812 L 237.972656 222.53125 L 237.980469 222.5625 C 238.042969 222.75 238.097656 222.9375 238.148438 223.113281 L 238.179688 223.214844 L 238.195312 223.28125 C 238.242188 223.449219 238.285156 223.625 238.320312 223.796875 L 238.335938 223.847656 C 238.351562 223.910156 238.363281 223.964844 238.371094 224.015625 C 238.40625 224.164062 238.429688 224.3125 238.453125 224.460938 L 238.460938 224.503906 L 238.484375 224.625 L 238.5 224.730469 C 238.515625 224.851562 238.53125 224.972656 238.542969 225.105469 C 236.066406 225.171875 230.9375 224.257812 225.1875 217.039062 C 224.238281 215.820312 204.414062 190.433594 191.164062 178.324219 C 190.492188 177.621094 186.4375 173.695312 180.511719 174.683594 C 177.796875 171.964844 168.953125 162.9375 160.613281 152.625 C 148.628906 137.8125 144.621094 129.039062 143.636719 123.953125 " fill-opacity="1" fill-rule="nonzero"/></g></g></g></svg>