<svg xmlns="http://www.w3.org/2000/svg" xmlns:xlink="http://www.w3.org/1999/xlink" width="500" zoomAndPan="magnify" viewBox="0 0 375 374.999991" height="500" preserveAspectRatio="xMidYMid meet" version="1.0"><defs><g/><clipPath id="6fbf308209"><path d="M 60.488281 60.488281 L 314.738281 60.488281 L 314.738281 314.738281 L 60.488281 314.738281 Z M 60.488281 60.488281 " clip-rule="nonzero"/></clipPath><clipPath id="b56c621476"><path d="M 80 80 L 295 80 L 295 295 L 80 295 Z M 80 80 " clip-rule="nonzero"/></clipPath><clipPath id="f7c7376bf2"><path d="M 94.277344 67.914062 L 307.152344 94.289062 L 280.777344 307.160156 L 67.90625 280.785156 Z M 94.277344 67.914062 " clip-rule="nonzero"/></clipPath><clipPath id="7803882afd"><path d="M 94.277344 67.914062 L 307.152344 94.289062 L 280.777344 307.160156 L 67.90625 280.785156 Z M 94.277344 67.914062 " clip-rule="nonzero"/></clipPath><clipPath id="12adb0935b"><path d="M 162.632812 219.117188 L 212 219.117188 L 212 287 L 162.632812 287 Z M 162.632812 219.117188 " clip-rule="nonzero"/></clipPath><clipPath id="9dca114a40"><path d="M 118.070312 116 L 144 116 L 144 260.570312 L 118.070312 260.570312 Z M 118.070312 116 " clip-rule="nonzero"/></clipPath><clipPath id="bed86d280b"><path d="M 236 114.320312 L 251 114.320312 L 251 260.570312 L 236 260.570312 Z M 236 114.320312 " clip-rule="nonzero"/></clipPath></defs><g clip-path="url(#6fbf308209)"><path fill="#9e0d17" d="M 314.5 187.492188 C 314.5 189.570312 314.449219 191.648438 314.347656 193.726562 C 314.246094 195.800781 314.089844 197.875 313.886719 199.941406 C 313.683594 202.011719 313.429688 204.074219 313.125 206.128906 C 312.820312 208.183594 312.464844 210.234375 312.058594 212.269531 C 311.652344 214.308594 311.199219 216.335938 310.691406 218.351562 C 310.1875 220.371094 309.632812 222.371094 309.03125 224.363281 C 308.425781 226.351562 307.773438 228.324219 307.074219 230.28125 C 306.375 232.238281 305.628906 234.175781 304.832031 236.097656 C 304.035156 238.015625 303.195312 239.917969 302.304688 241.796875 C 301.417969 243.675781 300.484375 245.53125 299.503906 247.363281 C 298.523438 249.195312 297.5 251.003906 296.429688 252.789062 C 295.363281 254.570312 294.25 256.324219 293.09375 258.054688 C 291.941406 259.78125 290.742188 261.480469 289.503906 263.152344 C 288.265625 264.820312 286.988281 266.457031 285.671875 268.066406 C 284.351562 269.671875 282.996094 271.246094 281.597656 272.785156 C 280.203125 274.324219 278.769531 275.832031 277.300781 277.300781 C 275.832031 278.769531 274.324219 280.203125 272.785156 281.597656 C 271.246094 282.996094 269.671875 284.351562 268.066406 285.671875 C 266.457031 286.988281 264.820312 288.265625 263.152344 289.503906 C 261.480469 290.742188 259.78125 291.941406 258.054688 293.09375 C 256.324219 294.25 254.570312 295.363281 252.789062 296.429688 C 251.003906 297.5 249.195312 298.523438 247.363281 299.503906 C 245.53125 300.484375 243.675781 301.417969 241.796875 302.304688 C 239.917969 303.195312 238.015625 304.035156 236.097656 304.832031 C 234.175781 305.628906 232.238281 306.375 230.28125 307.074219 C 228.324219 307.773438 226.351562 308.425781 224.363281 309.03125 C 222.371094 309.632812 220.371094 310.1875 218.351562 310.691406 C 216.335938 311.199219 214.308594 311.652344 212.269531 312.058594 C 210.234375 312.464844 208.183594 312.820312 206.128906 313.125 C 204.074219 313.429688 202.011719 313.683594 199.941406 313.886719 C 197.875 314.089844 195.800781 314.246094 193.726562 314.347656 C 191.648438 314.449219 189.570312 314.5 187.492188 314.5 C 185.414062 314.5 183.335938 314.449219 181.261719 314.347656 C 179.1875 314.246094 177.113281 314.089844 175.042969 313.886719 C 172.976562 313.683594 170.914062 313.429688 168.859375 313.125 C 166.800781 312.820312 164.753906 312.464844 162.714844 312.058594 C 160.675781 311.652344 158.648438 311.199219 156.632812 310.691406 C 154.617188 310.1875 152.613281 309.632812 150.625 309.03125 C 148.636719 308.425781 146.664062 307.773438 144.707031 307.074219 C 142.75 306.375 140.8125 305.628906 138.890625 304.832031 C 136.96875 304.035156 135.070312 303.195312 133.191406 302.304688 C 131.3125 301.417969 129.457031 300.484375 127.625 299.503906 C 125.789062 298.523438 123.980469 297.5 122.199219 296.429688 C 120.417969 295.363281 118.660156 294.25 116.933594 293.09375 C 115.203125 291.941406 113.503906 290.742188 111.835938 289.503906 C 110.167969 288.265625 108.527344 286.988281 106.921875 285.671875 C 105.316406 284.351562 103.742188 282.996094 102.203125 281.597656 C 100.660156 280.203125 99.15625 278.769531 97.6875 277.300781 C 96.21875 275.832031 94.785156 274.324219 93.386719 272.785156 C 91.992188 271.246094 90.636719 269.671875 89.316406 268.066406 C 87.996094 266.457031 86.71875 264.820312 85.480469 263.152344 C 84.242188 261.480469 83.046875 259.78125 81.890625 258.054688 C 80.738281 256.324219 79.625 254.570312 78.558594 252.789062 C 77.488281 251.003906 76.464844 249.195312 75.484375 247.363281 C 74.503906 245.53125 73.570312 243.675781 72.679688 241.796875 C 71.792969 239.917969 70.949219 238.015625 70.15625 236.097656 C 69.359375 234.175781 68.613281 232.238281 67.910156 230.28125 C 67.210938 228.324219 66.558594 226.351562 65.957031 224.363281 C 65.351562 222.371094 64.800781 220.371094 64.292969 218.351562 C 63.789062 216.335938 63.332031 214.308594 62.929688 212.269531 C 62.523438 210.234375 62.167969 208.183594 61.863281 206.128906 C 61.558594 204.074219 61.304688 202.011719 61.097656 199.941406 C 60.894531 197.875 60.742188 195.800781 60.640625 193.726562 C 60.539062 191.648438 60.488281 189.570312 60.488281 187.492188 C 60.488281 185.414062 60.539062 183.335938 60.640625 181.261719 C 60.742188 179.1875 60.894531 177.113281 61.097656 175.042969 C 61.304688 172.976562 61.558594 170.914062 61.863281 168.859375 C 62.167969 166.800781 62.523438 164.753906 62.929688 162.714844 C 63.332031 160.675781 63.789062 158.648438 64.292969 156.632812 C 64.800781 154.617188 65.351562 152.613281 65.957031 150.625 C 66.558594 148.636719 67.210938 146.664062 67.910156 144.707031 C 68.613281 142.75 69.359375 140.8125 70.15625 138.890625 C 70.949219 136.96875 71.792969 135.070312 72.679688 133.191406 C 73.570312 131.3125 74.503906 129.457031 75.484375 127.625 C 76.464844 125.789062 77.488281 123.980469 78.558594 122.199219 C 79.625 120.417969 80.738281 118.660156 81.890625 116.933594 C 83.046875 115.203125 84.242188 113.503906 85.480469 111.835938 C 86.71875 110.167969 87.996094 108.527344 89.316406 106.921875 C 90.636719 105.316406 91.992188 103.742188 93.386719 102.203125 C 94.785156 100.660156 96.21875 99.15625 97.6875 97.6875 C 99.15625 96.21875 100.660156 94.785156 102.203125 93.386719 C 103.742188 91.992188 105.316406 90.636719 106.921875 89.316406 C 108.527344 87.996094 110.167969 86.71875 111.835938 85.480469 C 113.503906 84.242188 115.203125 83.046875 116.933594 81.890625 C 118.660156 80.738281 120.417969 79.625 122.199219 78.558594 C 123.980469 77.488281 125.789062 76.464844 127.625 75.484375 C 129.457031 74.503906 131.3125 73.570312 133.191406 72.679688 C 135.070312 71.792969 136.96875 70.949219 138.890625 70.15625 C 140.8125 69.359375 142.75 68.613281 144.707031 67.910156 C 146.664062 67.210938 148.636719 66.558594 150.625 65.957031 C 152.613281 65.351562 154.617188 64.800781 156.632812 64.292969 C 158.648438 63.789062 160.675781 63.332031 162.714844 62.929688 C 164.753906 62.523438 166.800781 62.167969 168.859375 61.863281 C 170.914062 61.558594 172.976562 61.304688 175.042969 61.097656 C 177.113281 60.894531 179.1875 60.742188 181.261719 60.640625 C 183.335938 60.539062 185.414062 60.488281 187.492188 60.488281 C 189.570312 60.488281 191.648438 60.539062 193.726562 60.640625 C 195.800781 60.742188 197.875 60.894531 199.941406 61.097656 C 202.011719 61.304688 204.074219 61.558594 206.128906 61.863281 C 208.183594 62.167969 210.234375 62.523438 212.269531 62.929688 C 214.308594 63.332031 216.335938 63.789062 218.351562 64.292969 C 220.371094 64.800781 222.371094 65.351562 224.363281 65.957031 C 226.351562 66.558594 228.324219 67.210938 230.28125 67.910156 C 232.238281 68.613281 234.175781 69.359375 236.097656 70.15625 C 238.015625 70.949219 239.917969 71.792969 241.796875 72.679688 C 243.675781 73.570312 245.53125 74.503906 247.363281 75.484375 C 249.195312 76.464844 251.003906 77.488281 252.789062 78.558594 C 254.570312 79.625 256.324219 80.738281 258.054688 81.890625 C 259.78125 83.046875 261.480469 84.242188 263.152344 85.480469 C 264.820312 86.71875 266.457031 87.996094 268.066406 89.316406 C 269.671875 90.636719 271.246094 91.992188 272.785156 93.386719 C 274.324219 94.785156 275.832031 96.21875 277.300781 97.6875 C 278.769531 99.15625 280.203125 100.660156 281.597656 102.203125 C 282.996094 103.742188 284.351562 105.316406 285.671875 106.921875 C 286.988281 108.527344 288.265625 110.167969 289.503906 111.835938 C 290.742188 113.503906 291.941406 115.203125 293.09375 116.933594 C 294.25 118.660156 295.363281 120.417969 296.429688 122.199219 C 297.5 123.980469 298.523438 125.789062 299.503906 127.625 C 300.484375 129.457031 301.417969 131.3125 302.304688 133.191406 C 303.195312 135.070312 304.035156 136.96875 304.832031 138.890625 C 305.628906 140.8125 306.375 142.75 307.074219 144.707031 C 307.773438 146.664062 308.425781 148.636719 309.03125 150.625 C 309.632812 152.613281 310.1875 154.617188 310.691406 156.632812 C 311.199219 158.648438 311.652344 160.675781 312.058594 162.714844 C 312.464844 164.753906 312.820312 166.800781 313.125 168.859375 C 313.429688 170.914062 313.683594 172.976562 313.886719 175.042969 C 314.089844 177.113281 314.246094 179.1875 314.347656 181.261719 C 314.449219 183.335938 314.5 185.414062 314.5 187.492188 Z M 314.5 187.492188 " fill-opacity="1" fill-rule="nonzero"/></g><g clip-path="url(#b56c621476)"><g clip-path="url(#f7c7376bf2)"><g clip-path="url(#7803882afd)"><path fill="#dbba0d" d="M 168.1875 293.042969 C 164.105469 292.300781 160.03125 291.3125 156.078125 290.105469 L 157.285156 286.140625 C 161.085938 287.300781 165.003906 288.25 168.929688 288.960938 L 168.1875 293.039062 Z M 180.554688 294.566406 L 180.824219 290.429688 C 184.804688 290.691406 188.835938 290.722656 192.804688 290.519531 L 193.015625 294.660156 C 188.890625 294.867188 184.695312 294.839844 180.554688 294.566406 Z M 144.386719 285.777344 C 140.59375 284.117188 136.855469 282.210938 133.277344 280.113281 L 135.375 276.535156 C 138.8125 278.554688 142.40625 280.386719 146.050781 281.984375 Z M 205.402344 293.304688 L 204.710938 289.21875 C 208.636719 288.554688 212.5625 287.648438 216.386719 286.527344 L 217.550781 290.507812 C 213.578125 291.671875 209.488281 292.613281 205.402344 293.304688 Z M 122.90625 273.1875 C 119.601562 270.691406 116.40625 267.972656 113.414062 265.105469 L 116.277344 262.109375 C 119.15625 264.863281 122.230469 267.480469 125.402344 269.878906 Z M 229.285156 286.316406 L 227.664062 282.503906 C 231.324219 280.945312 234.9375 279.160156 238.398438 277.191406 L 240.449219 280.792969 C 236.847656 282.847656 233.09375 284.703125 229.285156 286.320312 Z M 104.921875 255.980469 C 102.28125 252.792969 99.792969 249.414062 97.539062 245.941406 L 101.015625 243.679688 C 103.183594 247.019531 105.570312 250.269531 108.109375 253.335938 L 104.917969 255.980469 Z M 250.902344 274.007812 L 248.453125 270.664062 C 251.660156 268.308594 254.769531 265.738281 257.6875 263.027344 L 260.511719 266.0625 C 257.476562 268.882812 254.246094 271.558594 250.90625 274.007812 Z M 91.367188 235.113281 C 89.527344 231.402344 87.886719 227.542969 86.492188 223.648438 L 90.398438 222.253906 C 91.738281 225.996094 93.3125 229.703125 95.085938 233.273438 Z M 269.128906 257.058594 L 265.972656 254.371094 C 268.558594 251.335938 270.992188 248.121094 273.203125 244.8125 L 276.648438 247.117188 C 274.347656 250.558594 271.816406 253.902344 269.125 257.058594 Z M 82.988281 211.6875 C 82.054688 207.648438 81.355469 203.515625 80.898438 199.398438 L 85.019531 198.945312 C 85.457031 202.898438 86.132812 206.871094 87.023438 210.757812 Z M 282.96875 236.363281 L 279.277344 234.480469 C 281.089844 230.929688 282.707031 227.238281 284.09375 223.503906 L 287.980469 224.945312 C 286.539062 228.832031 284.855469 232.675781 282.96875 236.363281 Z M 80.261719 186.953125 C 80.292969 182.824219 80.5625 178.644531 81.070312 174.519531 L 85.183594 175.03125 C 84.695312 178.992188 84.4375 183.011719 84.410156 186.984375 L 80.265625 186.953125 Z M 291.625 213.027344 L 287.597656 212.046875 C 288.535156 208.191406 289.261719 204.222656 289.75 200.261719 L 289.777344 200.042969 C 289.777344 200.042969 293.894531 200.542969 293.894531 200.542969 L 293.867188 200.769531 C 293.355469 204.890625 292.601562 209.011719 291.628906 213.023438 Z M 87.328125 163.234375 L 83.296875 162.257812 C 84.269531 158.226562 85.492188 154.214844 86.925781 150.335938 L 90.816406 151.773438 C 89.4375 155.5 88.261719 159.355469 87.328125 163.234375 Z M 290.542969 188.082031 C 290.570312 184.09375 290.355469 180.070312 289.917969 176.121094 L 294.039062 175.660156 C 294.496094 179.773438 294.714844 183.960938 294.691406 188.105469 L 290.546875 188.082031 Z M 95.621094 140.792969 L 91.929688 138.910156 C 93.808594 135.21875 95.929688 131.601562 98.230469 128.148438 L 101.679688 130.445312 C 99.46875 133.765625 97.429688 137.242188 95.621094 140.789062 Z M 287.898438 164.308594 C 287 160.433594 285.863281 156.566406 284.511719 152.816406 L 288.414062 151.414062 C 289.816406 155.3125 291 159.335938 291.9375 163.371094 Z M 108.902344 120.886719 L 105.742188 118.199219 C 108.421875 115.046875 111.320312 112.015625 114.351562 109.191406 L 117.179688 112.222656 C 114.261719 114.941406 111.476562 117.855469 108.902344 120.886719 Z M 279.816406 141.800781 C 278.042969 138.238281 276.046875 134.738281 273.867188 131.402344 L 277.34375 129.136719 C 279.605469 132.609375 281.6875 136.25 283.527344 139.957031 Z M 126.402344 104.570312 L 123.949219 101.234375 C 127.285156 98.777344 130.800781 96.492188 134.394531 94.441406 L 136.449219 98.042969 C 132.992188 100.015625 129.613281 102.210938 126.402344 104.574219 Z M 266.757812 121.75 C 264.214844 118.6875 261.464844 115.734375 258.582031 112.988281 L 261.445312 109.988281 C 264.441406 112.851562 267.296875 115.914062 269.945312 119.105469 L 266.753906 121.75 Z M 147.179688 92.714844 L 145.554688 88.902344 C 149.363281 87.277344 153.3125 85.863281 157.277344 84.695312 L 158.449219 88.671875 C 154.632812 89.796875 150.84375 91.15625 147.179688 92.714844 Z M 249.453125 105.226562 C 246.269531 102.828125 242.910156 100.589844 239.476562 98.582031 L 241.570312 95 C 245.144531 97.089844 248.632812 99.417969 251.945312 101.914062 L 249.453125 105.222656 Z M 170.121094 85.972656 L 169.425781 81.886719 C 173.503906 81.191406 177.671875 80.730469 181.8125 80.515625 L 182.027344 84.660156 C 178.050781 84.863281 174.042969 85.308594 170.121094 85.972656 Z M 228.792969 93.148438 C 225.148438 91.554688 221.367188 90.160156 217.554688 89.003906 L 218.761719 85.035156 C 222.726562 86.242188 226.660156 87.695312 230.453125 89.351562 L 228.792969 93.152344 Z M 194.011719 84.734375 L 194.277344 80.597656 C 196.390625 80.734375 198.53125 80.9375 200.632812 81.199219 L 200.652344 81.203125 C 202.652344 81.449219 204.671875 81.757812 206.644531 82.113281 L 205.90625 86.191406 C 204.003906 85.847656 202.066406 85.554688 200.140625 85.316406 L 200.121094 85.3125 C 198.09375 85.0625 196.039062 84.871094 194.007812 84.738281 Z M 194.011719 84.734375 " fill-opacity="1" fill-rule="nonzero"/></g></g></g><g clip-path="url(#12adb0935b)"><path fill="#dbba0d" d="M 187.382812 219.003906 C 186.582031 219.003906 185.78125 219.042969 184.984375 219.125 C 184.183594 219.203125 183.390625 219.320312 182.605469 219.480469 C 181.820312 219.636719 181.042969 219.832031 180.277344 220.066406 C 179.507812 220.296875 178.753906 220.566406 178.015625 220.875 C 177.273438 221.183594 176.550781 221.523438 175.84375 221.902344 C 175.136719 222.28125 174.449219 222.695312 173.78125 223.140625 C 173.117188 223.585938 172.472656 224.0625 171.851562 224.570312 C 171.234375 225.078125 170.640625 225.617188 170.074219 226.183594 C 169.507812 226.75 168.96875 227.34375 168.460938 227.964844 C 167.949219 228.585938 167.472656 229.226562 167.027344 229.894531 C 166.582031 230.5625 166.171875 231.246094 165.792969 231.953125 C 165.414062 232.660156 165.070312 233.386719 164.765625 234.125 C 164.457031 234.867188 164.1875 235.621094 163.953125 236.386719 C 163.71875 237.15625 163.523438 237.929688 163.367188 238.71875 C 163.210938 239.503906 163.09375 240.296875 163.011719 241.09375 C 162.933594 241.890625 162.894531 242.691406 162.894531 243.492188 C 162.894531 262.210938 185.222656 284.757812 186.175781 285.707031 L 187.382812 286.914062 L 188.589844 285.707031 C 189.539062 284.757812 211.871094 262.207031 211.871094 243.492188 C 211.871094 242.691406 211.832031 241.890625 211.75 241.09375 C 211.671875 240.296875 211.554688 239.503906 211.394531 238.71875 C 211.238281 237.929688 211.042969 237.15625 210.8125 236.386719 C 210.578125 235.621094 210.308594 234.867188 210 234.125 C 209.691406 233.386719 209.351562 232.660156 208.972656 231.953125 C 208.59375 231.246094 208.179688 230.5625 207.734375 229.894531 C 207.289062 229.226562 206.8125 228.585938 206.304688 227.964844 C 205.796875 227.34375 205.257812 226.75 204.691406 226.183594 C 204.125 225.617188 203.53125 225.078125 202.910156 224.570312 C 202.289062 224.0625 201.648438 223.585938 200.980469 223.140625 C 200.316406 222.695312 199.628906 222.28125 198.921875 221.902344 C 198.214844 221.523438 197.488281 221.183594 196.75 220.875 C 196.007812 220.566406 195.253906 220.296875 194.488281 220.066406 C 193.722656 219.832031 192.945312 219.636719 192.15625 219.480469 C 191.371094 219.320312 190.578125 219.203125 189.78125 219.125 C 188.984375 219.042969 188.183594 219.003906 187.382812 219.003906 Z M 187.382812 256.59375 C 186.523438 256.59375 185.671875 256.507812 184.828125 256.339844 C 183.984375 256.171875 183.164062 255.925781 182.371094 255.59375 C 181.574219 255.265625 180.820312 254.863281 180.105469 254.382812 C 179.390625 253.90625 178.726562 253.363281 178.121094 252.753906 C 177.511719 252.148438 176.96875 251.484375 176.492188 250.769531 C 176.011719 250.054688 175.609375 249.300781 175.28125 248.507812 C 174.949219 247.710938 174.703125 246.890625 174.535156 246.046875 C 174.367188 245.207031 174.28125 244.351562 174.28125 243.492188 C 174.28125 242.632812 174.367188 241.78125 174.535156 240.9375 C 174.703125 240.09375 174.949219 239.273438 175.28125 238.480469 C 175.609375 237.6875 176.011719 236.929688 176.492188 236.214844 C 176.96875 235.5 177.511719 234.839844 178.121094 234.230469 C 178.726562 233.621094 179.390625 233.078125 180.105469 232.601562 C 180.820312 232.125 181.574219 231.71875 182.371094 231.390625 C 183.164062 231.0625 183.984375 230.8125 184.828125 230.644531 C 185.671875 230.476562 186.523438 230.394531 187.382812 230.394531 C 188.242188 230.394531 189.09375 230.476562 189.9375 230.644531 C 190.78125 230.8125 191.601562 231.0625 192.394531 231.390625 C 193.1875 231.71875 193.945312 232.125 194.660156 232.601562 C 195.375 233.078125 196.035156 233.621094 196.644531 234.230469 C 197.253906 234.839844 197.796875 235.5 198.273438 236.214844 C 198.75 236.929688 199.15625 237.6875 199.484375 238.480469 C 199.8125 239.273438 200.0625 240.09375 200.230469 240.9375 C 200.398438 241.78125 200.480469 242.632812 200.480469 243.492188 C 200.480469 244.351562 200.394531 245.203125 200.226562 246.046875 C 200.058594 246.890625 199.808594 247.710938 199.480469 248.503906 C 199.152344 249.296875 198.746094 250.050781 198.269531 250.765625 C 197.792969 251.480469 197.25 252.144531 196.640625 252.75 C 196.03125 253.359375 195.371094 253.902344 194.65625 254.378906 C 193.941406 254.859375 193.1875 255.261719 192.390625 255.589844 C 191.597656 255.921875 190.78125 256.167969 189.9375 256.339844 C 189.09375 256.507812 188.242188 256.589844 187.382812 256.59375 Z M 187.382812 256.59375 " fill-opacity="1" fill-rule="nonzero"/></g><g clip-path="url(#9dca114a40)"><path fill="#dbba0d" d="M 139.082031 116.085938 C 139.082031 116.085938 138.203125 116.085938 138.230469 117.25 L 138.179688 154.953125 C 138.136719 156.40625 136.933594 156.453125 136.933594 156.453125 C 136.765625 156.4375 136.621094 156.390625 136.496094 156.335938 L 134.640625 134.785156 L 133.757812 117.117188 C 133.667969 116.28125 133.175781 116.210938 133.011719 116.210938 L 132.957031 116.214844 C 132.1875 116.25 132.160156 116.984375 132.160156 116.984375 L 131.890625 155.359375 C 132.054688 156.597656 130.835938 156.636719 130.679688 156.636719 L 130.660156 156.636719 C 130.46875 156.632812 130.3125 156.597656 130.175781 156.546875 L 129.296875 136.589844 L 129.160156 116.984375 C 129.160156 116.984375 129.132812 116.25 128.359375 116.214844 L 128.308594 116.210938 C 128.144531 116.210938 127.652344 116.28125 127.558594 117.117188 L 125.65625 155.25 C 125.65625 155.25 125.492188 156.320312 124.386719 156.453125 C 124.386719 156.453125 123.183594 156.40625 123.140625 154.953125 L 123.089844 117.25 C 123.117188 116.085938 122.234375 116.085938 122.234375 116.085938 C 121.546875 116.085938 121.488281 117.050781 121.488281 117.050781 L 118.339844 155.15625 C 118.171875 157.652344 118.707031 160.296875 119.570312 162.621094 C 120.265625 164.488281 121.097656 166.257812 122.527344 167.671875 C 123.820312 168.945312 125.429688 169.972656 126.382812 171.570312 C 127.578125 173.566406 128.019531 175.976562 128.058594 178.289062 L 128.019531 178.289062 C 128.019531 178.289062 128.742188 190.8125 126.070312 239.609375 C 126.070312 239.609375 123.664062 257.761719 130.632812 260.9375 L 130.632812 261.070312 C 130.730469 261.050781 130.824219 261.027344 130.917969 261.003906 C 131.011719 261.027344 131.105469 261.050781 131.199219 261.070312 L 131.203125 260.9375 C 131.347656 260.890625 131.484375 260.835938 131.617188 260.773438 L 131.707031 260.730469 C 131.835938 260.664062 131.964844 260.597656 132.085938 260.515625 L 132.128906 260.488281 C 132.242188 260.410156 132.355469 260.324219 132.464844 260.234375 L 132.515625 260.191406 C 132.632812 260.09375 132.75 259.984375 132.855469 259.867188 L 132.890625 259.832031 C 133.121094 259.585938 133.332031 259.3125 133.527344 259.007812 L 133.535156 258.996094 C 137.042969 253.535156 135.292969 239.40625 135.292969 239.40625 C 132.984375 195.546875 133.652344 180.898438 133.792969 178.617188 L 133.828125 178.617188 C 133.828125 177.488281 133.925781 176.476562 134.113281 175.546875 C 134.140625 175.398438 134.175781 175.257812 134.207031 175.113281 C 134.222656 175.058594 134.238281 175 134.25 174.945312 C 134.285156 174.808594 134.324219 174.671875 134.359375 174.539062 C 134.378906 174.480469 134.398438 174.417969 134.414062 174.359375 C 134.546875 173.9375 134.699219 173.53125 134.875 173.140625 C 134.90625 173.066406 134.933594 172.996094 134.96875 172.925781 C 135.019531 172.820312 135.070312 172.714844 135.125 172.609375 C 135.164062 172.527344 135.203125 172.449219 135.246094 172.371094 C 135.300781 172.269531 135.351562 172.171875 135.40625 172.074219 C 135.476562 171.949219 135.550781 171.828125 135.625 171.703125 C 135.695312 171.585938 135.769531 171.472656 135.84375 171.355469 C 135.90625 171.261719 135.96875 171.164062 136.035156 171.070312 C 136.089844 170.988281 136.148438 170.902344 136.207031 170.824219 C 136.277344 170.722656 136.351562 170.621094 136.425781 170.523438 C 136.480469 170.445312 136.535156 170.375 136.589844 170.300781 C 136.71875 170.136719 136.847656 169.972656 136.984375 169.804688 C 137.019531 169.761719 137.058594 169.71875 137.09375 169.675781 C 137.207031 169.539062 137.324219 169.402344 137.441406 169.261719 C 137.496094 169.203125 137.550781 169.140625 137.605469 169.082031 C 137.71875 168.953125 137.828125 168.824219 137.945312 168.703125 C 138 168.644531 138.046875 168.585938 138.101562 168.53125 C 138.265625 168.351562 138.4375 168.171875 138.613281 167.988281 C 140.136719 166.402344 141.085938 164.515625 141.804688 162.449219 C 141.9375 162.078125 142.058594 161.6875 142.175781 161.296875 L 142.183594 161.269531 L 142.179688 161.273438 C 142.769531 159.304688 143.152344 157.1875 142.984375 155.15625 L 139.832031 117.050781 C 139.832031 117.050781 139.773438 116.085938 139.082031 116.085938 Z M 120.933594 150.460938 L 120.9375 154.957031 L 120.941406 155.019531 C 121.007812 157.316406 122.679688 158.585938 124.300781 158.652344 L 124.386719 158.65625 C 124.476562 158.65625 124.5625 158.648438 124.648438 158.640625 C 126.550781 158.410156 127.628906 156.894531 127.832031 155.585938 C 127.84375 155.511719 127.851562 155.4375 127.855469 155.359375 L 127.890625 154.648438 L 127.980469 156.644531 C 128.015625 157.535156 128.589844 158.3125 129.425781 158.617188 C 129.800781 158.75 130.195312 158.824219 130.582031 158.835938 L 130.679688 158.835938 C 131.175781 158.835938 132.433594 158.726562 133.332031 157.699219 C 133.90625 157.042969 134.171875 156.183594 134.09375 155.25 L 134.097656 154.152344 L 134.304688 156.523438 C 134.371094 157.320312 134.867188 158.015625 135.597656 158.34375 C 135.945312 158.5 136.3125 158.601562 136.691406 158.640625 C 136.773438 158.648438 136.851562 158.65625 136.929688 158.65625 L 137.019531 158.652344 C 138.640625 158.585938 140.3125 157.316406 140.378906 155.019531 L 140.378906 154.957031 L 140.386719 150.46875 C 140.710938 154.367188 140.773438 155.164062 140.789062 155.335938 C 140.914062 156.847656 140.671875 158.632812 140.074219 160.644531 L 140.0625 160.683594 C 139.933594 161.101562 139.828125 161.433594 139.726562 161.726562 C 139 163.816406 138.167969 165.273438 137.027344 166.460938 C 136.84375 166.65625 136.664062 166.84375 136.488281 167.035156 C 136.4375 167.089844 136.382812 167.148438 136.332031 167.207031 L 136.324219 167.214844 C 136.199219 167.347656 136.078125 167.484375 135.953125 167.625 L 135.816406 167.78125 L 135.792969 167.804688 L 135.773438 167.828125 C 135.644531 167.976562 135.523438 168.125 135.398438 168.273438 L 135.375 168.300781 C 135.339844 168.339844 135.308594 168.378906 135.277344 168.417969 C 135.128906 168.597656 134.988281 168.777344 134.839844 168.96875 C 134.777344 169.050781 134.714844 169.132812 134.652344 169.21875 C 134.574219 169.324219 134.5 169.425781 134.425781 169.53125 C 134.355469 169.628906 134.285156 169.730469 134.214844 169.832031 C 134.140625 169.941406 134.066406 170.054688 133.992188 170.171875 C 133.90625 170.300781 133.824219 170.429688 133.742188 170.566406 C 133.65625 170.707031 133.574219 170.847656 133.484375 171.003906 C 133.421875 171.113281 133.363281 171.222656 133.304688 171.332031 C 133.253906 171.429688 133.203125 171.523438 133.160156 171.617188 C 133.097656 171.738281 133.039062 171.863281 132.980469 171.984375 L 132.96875 172.011719 C 132.929688 172.09375 132.894531 172.175781 132.863281 172.25 C 132.652344 172.714844 132.472656 173.203125 132.3125 173.707031 L 132.273438 173.839844 L 132.246094 173.929688 C 132.199219 174.085938 132.160156 174.242188 132.117188 174.410156 L 132.082031 174.554688 L 132.070312 174.601562 C 132.03125 174.753906 131.996094 174.902344 131.964844 175.054688 L 131.957031 175.113281 C 131.757812 176.089844 131.652344 177.105469 131.628906 178.214844 C 131.613281 178.300781 131.601562 178.390625 131.597656 178.480469 C 131.441406 180.996094 130.789062 195.757812 133.097656 239.523438 C 133.101562 239.574219 133.105469 239.625 133.109375 239.675781 C 133.566406 243.378906 134.199219 253.828125 131.707031 257.773438 L 131.679688 257.8125 C 131.550781 258.007812 131.417969 258.183594 131.285156 258.328125 L 131.253906 258.359375 C 131.199219 258.417969 131.148438 258.464844 131.101562 258.503906 L 131.101562 258.507812 L 131.046875 258.550781 L 130.984375 258.601562 C 127.425781 255.945312 127.574219 245.039062 128.25 239.898438 C 128.257812 239.839844 128.261719 239.785156 128.265625 239.730469 C 130.683594 195.621094 130.339844 181.1875 130.238281 178.597656 C 130.253906 178.484375 130.261719 178.371094 130.257812 178.253906 C 130.207031 175.191406 129.539062 172.558594 128.269531 170.441406 C 127.4375 169.039062 126.273438 168.039062 125.246094 167.15625 C 124.824219 166.792969 124.425781 166.449219 124.074219 166.105469 C 122.882812 164.929688 122.199219 163.367188 121.632812 161.855469 C 120.792969 159.601562 120.402344 157.28125 120.53125 155.320312 L 120.933594 150.460938 " fill-opacity="1" fill-rule="nonzero"/></g><g clip-path="url(#bed86d280b)"><path fill="#dbba0d" d="M 250.640625 114.3125 C 235.796875 122.601562 236.445312 182.675781 236.445312 182.675781 C 241.726562 185.648438 241.402344 191.585938 241.402344 191.585938 C 242.226562 209.578125 238.101562 242.746094 238.101562 242.746094 C 236.453125 257.269531 244.289062 261.070312 244.289062 261.070312 C 244.507812 260.875 244.714844 260.679688 244.914062 260.472656 C 244.980469 260.40625 245.039062 260.339844 245.105469 260.265625 C 245.234375 260.128906 245.367188 259.988281 245.492188 259.839844 C 245.558594 259.765625 245.617188 259.683594 245.679688 259.605469 C 245.800781 259.460938 245.917969 259.316406 246.027344 259.167969 C 246.082031 259.09375 246.136719 259.015625 246.1875 258.941406 C 246.304688 258.78125 246.414062 258.625 246.519531 258.460938 C 246.566406 258.390625 246.609375 258.324219 246.648438 258.253906 C 246.761719 258.078125 246.871094 257.898438 246.972656 257.722656 C 247.007812 257.664062 247.039062 257.605469 247.070312 257.546875 C 247.179688 257.351562 247.289062 257.152344 247.386719 256.953125 C 247.410156 256.910156 247.433594 256.863281 247.457031 256.816406 C 247.5625 256.601562 247.664062 256.382812 247.761719 256.164062 L 247.804688 256.066406 C 247.90625 255.832031 248.003906 255.597656 248.097656 255.363281 L 248.109375 255.328125 C 250.398438 249.425781 249.707031 242.746094 249.707031 242.746094 C 246.59375 228.863281 246.683594 197.859375 246.683594 197.859375 C 246.824219 193.339844 247.222656 189.988281 247.710938 187.503906 C 248.566406 183.15625 249.703125 181.457031 250.277344 180.847656 L 250.28125 180.839844 L 250.351562 180.773438 L 250.355469 180.765625 C 250.398438 180.722656 250.4375 180.691406 250.46875 180.660156 L 250.476562 180.65625 L 250.519531 180.621094 L 250.535156 180.605469 L 250.566406 180.582031 L 250.601562 180.558594 L 250.613281 180.546875 L 250.628906 180.542969 L 250.640625 180.53125 Z M 248.441406 119.515625 L 248.441406 179.605469 C 247.546875 180.683594 246.398438 182.820312 245.566406 187.019531 L 245.554688 187.078125 C 244.976562 190.015625 244.617188 193.621094 244.484375 197.785156 L 244.480469 197.851562 C 244.476562 199.121094 244.429688 229.0625 247.527344 243.089844 C 247.601562 243.953125 247.976562 249.589844 246.058594 254.53125 L 246.050781 254.554688 L 246.046875 254.558594 C 245.964844 254.765625 245.878906 254.976562 245.789062 255.179688 L 245.78125 255.203125 L 245.75 255.269531 C 245.664062 255.464844 245.574219 255.65625 245.484375 255.839844 L 245.453125 255.90625 L 245.441406 255.929688 L 245.425781 255.957031 C 245.335938 256.132812 245.246094 256.304688 245.15625 256.464844 L 245.105469 256.558594 L 245.070312 256.617188 C 244.984375 256.769531 244.890625 256.921875 244.792969 257.074219 L 244.765625 257.117188 C 244.734375 257.171875 244.703125 257.222656 244.675781 257.261719 C 244.59375 257.390625 244.503906 257.511719 244.417969 257.636719 L 244.394531 257.671875 L 244.320312 257.769531 L 244.257812 257.859375 C 244.183594 257.957031 244.109375 258.050781 244.023438 258.152344 C 242.226562 256.449219 239.246094 252.175781 240.285156 243.007812 C 240.476562 241.472656 244.410156 209.503906 243.605469 191.570312 C 243.625 190.597656 243.535156 184.957031 238.644531 181.46875 C 238.648438 177.621094 238.777344 164.988281 240.167969 151.796875 C 242.171875 132.851562 245.542969 123.8125 248.441406 119.515625 " fill-opacity="1" fill-rule="nonzero"/></g><g fill="#dbba0d" fill-opacity="1"><g transform="translate(137.531079, 204.587348)"><g><path d="M 18.4375 -5.15625 C 18.488281 -5.050781 18.492188 -4.945312 18.453125 -4.84375 C 18.410156 -4.75 18.34375 -4.679688 18.25 -4.640625 C 17.832031 -4.441406 17.28125 -4.273438 16.59375 -4.140625 C 15.90625 -4.015625 15.113281 -3.890625 14.21875 -3.765625 C 14.007812 -2.828125 13.789062 -1.816406 13.5625 -0.734375 C 13.34375 0.335938 13.132812 1.421875 12.9375 2.515625 C 12.738281 3.609375 12.550781 4.660156 12.375 5.671875 C 12.207031 6.691406 12.0625 7.617188 11.9375 8.453125 C 11.820312 9.296875 11.734375 10.003906 11.671875 10.578125 C 11.773438 10.515625 11.882812 10.503906 12 10.546875 C 12.09375 10.585938 12.160156 10.65625 12.203125 10.75 C 12.253906 10.851562 12.269531 10.957031 12.25 11.0625 C 12.09375 11.476562 11.945312 11.8125 11.8125 12.0625 C 11.6875 12.3125 11.53125 12.4375 11.34375 12.4375 C 11.300781 12.4375 11.25 12.425781 11.1875 12.40625 C 10.976562 12.34375 10.859375 12.160156 10.828125 11.859375 C 10.796875 11.554688 10.828125 10.96875 10.921875 10.09375 C 11.046875 9.007812 11.257812 7.546875 11.5625 5.703125 C 11.769531 4.535156 11.988281 3.320312 12.21875 2.0625 C 12.457031 0.8125 12.695312 -0.378906 12.9375 -1.515625 C 11.757812 0.628906 10.582031 2.421875 9.40625 3.859375 C 8.238281 5.296875 7.125 6.328125 6.0625 6.953125 C 5 7.585938 4.039062 7.742188 3.1875 7.421875 C 2.394531 7.140625 1.820312 6.484375 1.46875 5.453125 C 1.113281 4.421875 0.976562 3.09375 1.0625 1.46875 C 1.15625 -0.15625 1.484375 -2.003906 2.046875 -4.078125 C 2.285156 -4.960938 2.609375 -5.929688 3.015625 -6.984375 C 3.421875 -8.035156 3.878906 -9.113281 4.390625 -10.21875 C 4.910156 -11.332031 5.472656 -12.425781 6.078125 -13.5 C 6.691406 -14.582031 7.316406 -15.585938 7.953125 -16.515625 C 8.597656 -17.453125 9.238281 -18.253906 9.875 -18.921875 C 10.5 -19.597656 11.125 -20.046875 11.75 -20.265625 C 12.382812 -20.492188 12.941406 -20.476562 13.421875 -20.21875 C 13.660156 -20.09375 13.894531 -19.851562 14.125 -19.5 C 14.363281 -19.144531 14.539062 -18.625 14.65625 -17.9375 C 14.769531 -17.25 14.769531 -16.332031 14.65625 -15.1875 C 14.550781 -14.039062 14.265625 -12.601562 13.796875 -10.875 C 13.765625 -10.769531 13.703125 -10.6875 13.609375 -10.625 C 13.515625 -10.570312 13.421875 -10.5625 13.328125 -10.59375 C 13.210938 -10.625 13.125 -10.6875 13.0625 -10.78125 C 13.007812 -10.875 13 -10.976562 13.03125 -11.09375 C 13.507812 -12.882812 13.796875 -14.375 13.890625 -15.5625 C 13.984375 -16.75 13.941406 -17.660156 13.765625 -18.296875 C 13.597656 -18.941406 13.351562 -19.347656 13.03125 -19.515625 C 12.726562 -19.691406 12.34375 -19.675781 11.875 -19.46875 C 11.414062 -19.257812 10.941406 -18.898438 10.453125 -18.390625 C 9.828125 -17.722656 9.203125 -16.9375 8.578125 -16.03125 C 7.953125 -15.125 7.34375 -14.144531 6.75 -13.09375 C 6.164062 -12.039062 5.617188 -10.96875 5.109375 -9.875 C 4.597656 -8.789062 4.144531 -7.734375 3.75 -6.703125 C 3.363281 -5.679688 3.050781 -4.738281 2.8125 -3.875 C 1.988281 -0.820312 1.675781 1.675781 1.875 3.625 C 1.957031 4.445312 2.132812 5.125 2.40625 5.65625 C 2.6875 6.1875 3.039062 6.53125 3.46875 6.6875 C 3.976562 6.875 4.59375 6.796875 5.3125 6.453125 C 6.039062 6.109375 6.820312 5.515625 7.65625 4.671875 C 8.550781 3.765625 9.457031 2.601562 10.375 1.1875 C 11.300781 -0.226562 12.222656 -1.835938 13.140625 -3.640625 C 12.722656 -3.597656 12.289062 -3.550781 11.84375 -3.5 C 11.394531 -3.457031 10.941406 -3.414062 10.484375 -3.375 C 9.742188 -3.289062 8.988281 -3.207031 8.21875 -3.125 C 7.457031 -3.039062 6.710938 -2.953125 5.984375 -2.859375 C 5.960938 -2.859375 5.945312 -2.859375 5.9375 -2.859375 C 5.695312 -2.859375 5.566406 -2.972656 5.546875 -3.203125 C 5.535156 -3.316406 5.554688 -3.414062 5.609375 -3.5 C 5.671875 -3.59375 5.757812 -3.644531 5.875 -3.65625 C 6.601562 -3.757812 7.347656 -3.847656 8.109375 -3.921875 C 8.878906 -3.992188 9.644531 -4.070312 10.40625 -4.15625 C 10.945312 -4.207031 11.484375 -4.257812 12.015625 -4.3125 C 12.546875 -4.375 13.054688 -4.429688 13.546875 -4.484375 C 13.566406 -4.515625 13.578125 -4.539062 13.578125 -4.5625 C 13.585938 -4.582031 13.597656 -4.609375 13.609375 -4.640625 C 13.703125 -4.859375 13.867188 -4.925781 14.109375 -4.84375 C 14.222656 -4.800781 14.304688 -4.71875 14.359375 -4.59375 C 15.140625 -4.707031 15.835938 -4.820312 16.453125 -4.9375 C 17.078125 -5.050781 17.566406 -5.191406 17.921875 -5.359375 C 18.015625 -5.398438 18.113281 -5.398438 18.21875 -5.359375 C 18.320312 -5.316406 18.394531 -5.25 18.4375 -5.15625 Z M 18.4375 -5.15625 "/></g></g></g><g fill="#dbba0d" fill-opacity="1"><g transform="translate(156.70193, 204.587348)"><g><path d="M 8.671875 -4.59375 C 8.765625 -4.550781 8.828125 -4.476562 8.859375 -4.375 C 8.898438 -4.269531 8.898438 -4.171875 8.859375 -4.078125 C 8.597656 -3.535156 8.3125 -2.992188 8 -2.453125 C 7.6875 -1.921875 7.359375 -1.429688 7.015625 -0.984375 C 6.679688 -0.535156 6.332031 -0.175781 5.96875 0.09375 C 5.613281 0.363281 5.257812 0.5 4.90625 0.5 C 4.832031 0.5 4.753906 0.488281 4.671875 0.46875 C 3.753906 0.289062 3.179688 -0.945312 2.953125 -3.25 C 2.722656 -2.925781 2.453125 -2.566406 2.140625 -2.171875 C 1.828125 -1.785156 1.5 -1.398438 1.15625 -1.015625 C 1.101562 -0.960938 1.015625 -0.875 0.890625 -0.75 C 0.765625 -0.632812 0.617188 -0.539062 0.453125 -0.46875 C 0.285156 -0.40625 0.117188 -0.414062 -0.046875 -0.5 C -0.367188 -0.625 -0.523438 -0.984375 -0.515625 -1.578125 C -0.515625 -1.921875 -0.445312 -2.347656 -0.3125 -2.859375 C -0.1875 -3.367188 -0.00390625 -3.878906 0.234375 -4.390625 C 0.472656 -4.910156 0.753906 -5.367188 1.078125 -5.765625 C 1.410156 -6.171875 1.773438 -6.441406 2.171875 -6.578125 C 2.421875 -6.671875 2.722656 -6.6875 3.078125 -6.625 C 3.441406 -6.5625 3.816406 -6.304688 4.203125 -5.859375 C 4.265625 -5.773438 4.289062 -5.675781 4.28125 -5.5625 C 4.28125 -5.457031 4.238281 -5.367188 4.15625 -5.296875 C 4.070312 -5.222656 3.972656 -5.191406 3.859375 -5.203125 C 3.753906 -5.210938 3.664062 -5.257812 3.59375 -5.34375 C 3.269531 -5.726562 2.984375 -5.910156 2.734375 -5.890625 C 2.492188 -5.867188 2.289062 -5.796875 2.125 -5.671875 C 1.820312 -5.453125 1.546875 -5.132812 1.296875 -4.71875 C 1.054688 -4.300781 0.851562 -3.863281 0.6875 -3.40625 C 0.519531 -2.957031 0.398438 -2.535156 0.328125 -2.140625 C 0.265625 -1.742188 0.242188 -1.457031 0.265625 -1.28125 C 0.304688 -1.3125 0.347656 -1.347656 0.390625 -1.390625 C 0.441406 -1.429688 0.5 -1.484375 0.5625 -1.546875 C 0.96875 -2.003906 1.34375 -2.457031 1.6875 -2.90625 C 2.039062 -3.351562 2.34375 -3.75 2.59375 -4.09375 C 2.65625 -4.1875 2.71875 -4.28125 2.78125 -4.375 C 2.84375 -4.46875 2.898438 -4.546875 2.953125 -4.609375 C 3.066406 -4.742188 3.210938 -4.785156 3.390625 -4.734375 C 3.566406 -4.691406 3.664062 -4.578125 3.6875 -4.390625 C 3.726562 -3.492188 3.800781 -2.769531 3.90625 -2.21875 C 4.007812 -1.675781 4.117188 -1.269531 4.234375 -1 C 4.359375 -0.726562 4.476562 -0.546875 4.59375 -0.453125 C 4.707031 -0.359375 4.789062 -0.3125 4.84375 -0.3125 C 5.101562 -0.257812 5.519531 -0.523438 6.09375 -1.109375 C 6.675781 -1.703125 7.351562 -2.800781 8.125 -4.40625 C 8.1875 -4.519531 8.265625 -4.59375 8.359375 -4.625 C 8.460938 -4.65625 8.566406 -4.644531 8.671875 -4.59375 Z M 8.671875 -4.59375 "/></g></g></g><g fill="#dbba0d" fill-opacity="1"><g transform="translate(164.395085, 204.587348)"><g><path d="M 9.203125 -4.734375 C 9.285156 -4.671875 9.332031 -4.582031 9.34375 -4.46875 C 9.363281 -4.351562 9.332031 -4.253906 9.25 -4.171875 C 8.84375 -3.703125 8.398438 -3.1875 7.921875 -2.625 C 7.441406 -2.0625 6.96875 -1.507812 6.5 -0.96875 C 6.039062 -0.4375 5.644531 0.0234375 5.3125 0.421875 C 4.976562 0.816406 4.757812 1.082031 4.65625 1.21875 C 4.414062 1.519531 4.1875 1.816406 3.96875 2.109375 C 4.144531 2.910156 4.160156 3.664062 4.015625 4.375 C 3.878906 5.082031 3.640625 5.710938 3.296875 6.265625 C 2.960938 6.816406 2.609375 7.242188 2.234375 7.546875 C 1.847656 7.878906 1.488281 8.046875 1.15625 8.046875 C 0.945312 8.046875 0.773438 7.976562 0.640625 7.84375 C 0.410156 7.625 0.332031 7.296875 0.40625 6.859375 C 0.476562 6.421875 0.648438 5.925781 0.921875 5.375 C 1.203125 4.820312 1.535156 4.25 1.921875 3.65625 C 2.304688 3.0625 2.703125 2.488281 3.109375 1.9375 C 3.035156 1.695312 2.9375 1.445312 2.8125 1.1875 C 2.6875 0.9375 2.539062 0.675781 2.375 0.40625 C 1.8125 -0.445312 1.332031 -1.25 0.9375 -2 C 0.550781 -2.75 0.367188 -3.4375 0.390625 -4.0625 C 0.460938 -5.195312 0.972656 -6.050781 1.921875 -6.625 C 2.304688 -6.851562 2.710938 -6.988281 3.140625 -7.03125 C 3.566406 -7.070312 3.960938 -7.007812 4.328125 -6.84375 C 4.421875 -6.789062 4.484375 -6.710938 4.515625 -6.609375 C 4.554688 -6.503906 4.554688 -6.40625 4.515625 -6.3125 C 4.453125 -6.21875 4.367188 -6.148438 4.265625 -6.109375 C 4.160156 -6.078125 4.0625 -6.082031 3.96875 -6.125 C 3.476562 -6.351562 2.9375 -6.289062 2.34375 -5.9375 C 1.625 -5.507812 1.242188 -4.867188 1.203125 -4.015625 C 1.171875 -3.503906 1.34375 -2.898438 1.71875 -2.203125 C 2.09375 -1.515625 2.535156 -0.796875 3.046875 -0.046875 C 3.304688 0.359375 3.519531 0.765625 3.6875 1.171875 C 3.789062 1.035156 3.90625 0.882812 4.03125 0.71875 C 4.144531 0.582031 4.367188 0.316406 4.703125 -0.078125 C 5.046875 -0.484375 5.441406 -0.953125 5.890625 -1.484375 C 6.347656 -2.023438 6.820312 -2.578125 7.3125 -3.140625 C 7.800781 -3.710938 8.242188 -4.234375 8.640625 -4.703125 C 8.710938 -4.773438 8.800781 -4.816406 8.90625 -4.828125 C 9.019531 -4.847656 9.117188 -4.816406 9.203125 -4.734375 Z M 2.484375 6.078125 C 2.578125 5.929688 2.691406 5.710938 2.828125 5.421875 C 2.972656 5.140625 3.09375 4.796875 3.1875 4.390625 C 3.289062 3.984375 3.328125 3.535156 3.296875 3.046875 C 2.660156 3.941406 2.1875 4.6875 1.875 5.28125 C 1.5625 5.875 1.359375 6.320312 1.265625 6.625 C 1.179688 6.9375 1.148438 7.140625 1.171875 7.234375 C 1.273438 7.234375 1.445312 7.144531 1.6875 6.96875 C 1.9375 6.789062 2.203125 6.492188 2.484375 6.078125 Z M 2.484375 6.078125 "/></g></g></g><g fill="#dbba0d" fill-opacity="1"><g transform="translate(172.729342, 204.587348)"><g><path d="M 17.453125 -12.203125 C 17.523438 -12.117188 17.550781 -12.019531 17.53125 -11.90625 C 17.519531 -11.800781 17.46875 -11.710938 17.375 -11.640625 C 17.207031 -11.535156 17.050781 -11.546875 16.90625 -11.671875 C 16.726562 -11.734375 16.316406 -11.78125 15.671875 -11.8125 C 15.023438 -11.84375 14.21875 -11.859375 13.25 -11.859375 C 12.289062 -11.867188 11.234375 -11.863281 10.078125 -11.84375 C 8.921875 -11.832031 7.726562 -11.816406 6.5 -11.796875 C 5.28125 -11.773438 4.097656 -11.753906 2.953125 -11.734375 C 2.523438 -9.941406 2.078125 -7.992188 1.609375 -5.890625 C 1.140625 -3.785156 0.679688 -1.648438 0.234375 0.515625 C -0.359375 3.359375 -0.816406 5.6875 -1.140625 7.5 C -1.472656 9.320312 -1.6875 10.640625 -1.78125 11.453125 C -1.75 11.453125 -1.722656 11.460938 -1.703125 11.484375 C -1.585938 11.503906 -1.507812 11.566406 -1.46875 11.671875 C -1.425781 11.773438 -1.425781 11.878906 -1.46875 11.984375 C -1.550781 12.210938 -1.644531 12.425781 -1.75 12.625 C -1.851562 12.832031 -1.992188 12.9375 -2.171875 12.9375 C -2.210938 12.9375 -2.257812 12.925781 -2.3125 12.90625 C -2.507812 12.84375 -2.617188 12.695312 -2.640625 12.46875 C -2.660156 12.238281 -2.644531 11.921875 -2.59375 11.515625 C -2.53125 10.941406 -2.40625 10.109375 -2.21875 9.015625 C -2.050781 7.992188 -1.832031 6.800781 -1.5625 5.4375 C -1.300781 4.070312 -1 2.578125 -0.65625 0.953125 C -0.207031 -1.253906 0.253906 -3.445312 0.734375 -5.625 C 1.222656 -7.800781 1.6875 -9.828125 2.125 -11.703125 C 1.46875 -11.691406 0.84375 -11.675781 0.25 -11.65625 C -0.34375 -11.644531 -0.878906 -11.632812 -1.359375 -11.625 C -2.285156 -11.59375 -3.09375 -11.570312 -3.78125 -11.5625 C -4.46875 -11.550781 -4.957031 -11.546875 -5.25 -11.546875 C -5.363281 -11.546875 -5.457031 -11.582031 -5.53125 -11.65625 C -5.601562 -11.726562 -5.640625 -11.820312 -5.640625 -11.9375 C -5.640625 -12.050781 -5.601562 -12.144531 -5.53125 -12.21875 C -5.457031 -12.289062 -5.363281 -12.328125 -5.25 -12.328125 C -4.957031 -12.328125 -4.46875 -12.335938 -3.78125 -12.359375 C -3.101562 -12.378906 -2.304688 -12.40625 -1.390625 -12.4375 C -0.722656 -12.445312 -0.0820312 -12.457031 0.53125 -12.46875 C 1.15625 -12.488281 1.757812 -12.503906 2.34375 -12.515625 C 2.539062 -13.398438 2.738281 -14.226562 2.9375 -15 C 3.144531 -15.78125 3.335938 -16.5 3.515625 -17.15625 C 3.546875 -17.257812 3.609375 -17.335938 3.703125 -17.390625 C 3.796875 -17.453125 3.894531 -17.46875 4 -17.4375 C 4.101562 -17.40625 4.179688 -17.34375 4.234375 -17.25 C 4.296875 -17.15625 4.3125 -17.050781 4.28125 -16.9375 C 3.945312 -15.71875 3.566406 -14.25 3.140625 -12.53125 C 5.296875 -12.570312 7.140625 -12.601562 8.671875 -12.625 C 10.203125 -12.644531 11.484375 -12.65625 12.515625 -12.65625 C 13.546875 -12.65625 14.378906 -12.640625 15.015625 -12.609375 C 15.660156 -12.585938 16.148438 -12.554688 16.484375 -12.515625 C 16.816406 -12.484375 17.050781 -12.441406 17.1875 -12.390625 C 17.320312 -12.335938 17.410156 -12.273438 17.453125 -12.203125 Z M 17.453125 -12.203125 "/></g></g></g><g fill="#dbba0d" fill-opacity="1"><g transform="translate(175.479857, 204.587348)"><g><path d="M 9.078125 -4.703125 C 9.179688 -4.640625 9.25 -4.554688 9.28125 -4.453125 C 9.320312 -4.347656 9.316406 -4.25 9.265625 -4.15625 C 9.003906 -3.59375 8.679688 -2.957031 8.296875 -2.25 C 7.921875 -1.550781 7.519531 -0.84375 7.09375 -0.125 C 6.664062 0.582031 6.226562 1.226562 5.78125 1.8125 C 5.34375 2.394531 4.914062 2.867188 4.5 3.234375 C 4.09375 3.597656 3.722656 3.78125 3.390625 3.78125 C 3.296875 3.78125 3.207031 3.757812 3.125 3.71875 C 2.832031 3.613281 2.640625 3.351562 2.546875 2.9375 C 2.460938 2.519531 2.476562 1.925781 2.59375 1.15625 C 2.78125 -0.238281 3.285156 -2.210938 4.109375 -4.765625 C 4.097656 -4.765625 4.085938 -4.757812 4.078125 -4.75 C 4.078125 -4.738281 4.070312 -4.734375 4.0625 -4.734375 C 3.78125 -4.546875 3.445312 -4.347656 3.0625 -4.140625 C 2.675781 -3.929688 2.273438 -3.789062 1.859375 -3.71875 C 1.441406 -3.65625 1.050781 -3.75 0.6875 -4 C 0.15625 -4.363281 -0.113281 -4.875 -0.125 -5.53125 C -0.132812 -6.195312 0.113281 -6.925781 0.625 -7.71875 C 0.789062 -7.96875 1.003906 -8.242188 1.265625 -8.546875 C 1.535156 -8.847656 1.816406 -9.082031 2.109375 -9.25 C 2.410156 -9.414062 2.679688 -9.421875 2.921875 -9.265625 C 3.046875 -9.203125 3.140625 -9.085938 3.203125 -8.921875 C 3.265625 -8.753906 3.257812 -8.5 3.1875 -8.15625 C 3.113281 -7.8125 2.945312 -7.347656 2.6875 -6.765625 C 2.425781 -6.179688 2.035156 -5.429688 1.515625 -4.515625 C 1.828125 -4.472656 2.179688 -4.5625 2.578125 -4.78125 C 2.972656 -5 3.320312 -5.207031 3.625 -5.40625 C 3.914062 -5.59375 4.15625 -5.726562 4.34375 -5.8125 C 4.539062 -5.90625 4.71875 -5.890625 4.875 -5.765625 C 5.03125 -5.640625 5.09375 -5.488281 5.0625 -5.3125 C 5.039062 -5.132812 5.015625 -5 4.984375 -4.90625 C 4.523438 -3.46875 4.171875 -2.269531 3.921875 -1.3125 C 3.679688 -0.363281 3.515625 0.394531 3.421875 0.96875 C 3.335938 1.550781 3.296875 1.984375 3.296875 2.265625 C 3.296875 2.554688 3.3125 2.75 3.34375 2.84375 C 3.382812 2.9375 3.40625 2.988281 3.40625 3 C 3.570312 3.03125 3.914062 2.765625 4.4375 2.203125 C 4.957031 1.640625 5.570312 0.800781 6.28125 -0.3125 C 7 -1.4375 7.753906 -2.828125 8.546875 -4.484375 C 8.597656 -4.597656 8.675781 -4.671875 8.78125 -4.703125 C 8.882812 -4.742188 8.984375 -4.742188 9.078125 -4.703125 Z M 0.75 -6.109375 C 0.664062 -5.816406 0.640625 -5.578125 0.671875 -5.390625 C 0.703125 -5.203125 0.753906 -5.050781 0.828125 -4.9375 C 1.265625 -5.71875 1.597656 -6.347656 1.828125 -6.828125 C 2.054688 -7.304688 2.210938 -7.675781 2.296875 -7.9375 C 2.378906 -8.207031 2.425781 -8.394531 2.4375 -8.5 C 2.289062 -8.414062 2.101562 -8.253906 1.875 -8.015625 C 1.644531 -7.785156 1.421875 -7.503906 1.203125 -7.171875 C 0.992188 -6.847656 0.84375 -6.492188 0.75 -6.109375 Z M 0.75 -6.109375 "/></g></g></g><g fill="#dbba0d" fill-opacity="1"><g transform="translate(183.731391, 204.587348)"><g><path d="M 7.484375 -4.515625 C 7.585938 -4.441406 7.644531 -4.347656 7.65625 -4.234375 C 7.664062 -4.128906 7.640625 -4.035156 7.578125 -3.953125 C 7.210938 -3.492188 6.789062 -3.082031 6.3125 -2.71875 C 5.84375 -2.363281 5.347656 -2.097656 4.828125 -1.921875 C 4.316406 -1.753906 3.816406 -1.726562 3.328125 -1.84375 C 3.140625 -1.351562 2.867188 -0.976562 2.515625 -0.71875 C 2.160156 -0.457031 1.804688 -0.328125 1.453125 -0.328125 C 1.453125 -0.328125 1.445312 -0.328125 1.4375 -0.328125 C 1.425781 -0.328125 1.421875 -0.328125 1.421875 -0.328125 C 1.054688 -0.347656 0.726562 -0.476562 0.4375 -0.71875 C 0.15625 -0.957031 -0.0351562 -1.289062 -0.140625 -1.71875 C -0.265625 -2.195312 -0.285156 -2.65625 -0.203125 -3.09375 C -0.117188 -3.53125 0.03125 -3.910156 0.25 -4.234375 C 0.46875 -4.566406 0.71875 -4.820312 1 -5 C 1.09375 -5.070312 1.203125 -5.085938 1.328125 -5.046875 C 1.453125 -5.347656 1.625 -5.582031 1.84375 -5.75 C 2.070312 -5.914062 2.3125 -5.976562 2.5625 -5.9375 C 2.71875 -5.90625 2.882812 -5.8125 3.0625 -5.65625 C 3.238281 -5.5 3.378906 -5.21875 3.484375 -4.8125 C 3.597656 -4.40625 3.632812 -3.804688 3.59375 -3.015625 C 3.582031 -2.878906 3.5625 -2.742188 3.53125 -2.609375 C 3.90625 -2.535156 4.300781 -2.570312 4.71875 -2.71875 C 5.132812 -2.875 5.535156 -3.109375 5.921875 -3.421875 C 6.304688 -3.734375 6.644531 -4.078125 6.9375 -4.453125 C 7 -4.535156 7.082031 -4.582031 7.1875 -4.59375 C 7.300781 -4.601562 7.398438 -4.578125 7.484375 -4.515625 Z M 1.453125 -1.140625 C 1.628906 -1.140625 1.828125 -1.222656 2.046875 -1.390625 C 2.265625 -1.554688 2.445312 -1.800781 2.59375 -2.125 C 2.09375 -2.40625 1.734375 -2.722656 1.515625 -3.078125 C 1.304688 -3.441406 1.191406 -3.800781 1.171875 -4.15625 C 0.890625 -3.882812 0.703125 -3.535156 0.609375 -3.109375 C 0.515625 -2.679688 0.519531 -2.289062 0.625 -1.9375 C 0.664062 -1.789062 0.75 -1.617188 0.875 -1.421875 C 1 -1.234375 1.191406 -1.140625 1.453125 -1.140625 Z M 2.796875 -3.0625 C 2.816406 -3.613281 2.800781 -4.039062 2.75 -4.34375 C 2.707031 -4.644531 2.648438 -4.847656 2.578125 -4.953125 C 2.515625 -5.066406 2.46875 -5.132812 2.4375 -5.15625 C 2.425781 -5.15625 2.421875 -5.15625 2.421875 -5.15625 C 2.378906 -5.15625 2.316406 -5.113281 2.234375 -5.03125 C 2.148438 -4.945312 2.082031 -4.820312 2.03125 -4.65625 C 1.945312 -4.394531 1.953125 -4.109375 2.046875 -3.796875 C 2.140625 -3.484375 2.390625 -3.195312 2.796875 -2.9375 C 2.796875 -2.976562 2.796875 -3.019531 2.796875 -3.0625 Z M 2.796875 -3.0625 "/></g></g></g><g fill="#dbba0d" fill-opacity="1"><g transform="translate(190.349162, 204.587348)"><g><path d="M 8.34375 -4.609375 C 8.4375 -4.554688 8.492188 -4.476562 8.515625 -4.375 C 8.546875 -4.269531 8.535156 -4.171875 8.484375 -4.078125 C 7.835938 -2.929688 7.253906 -2.050781 6.734375 -1.4375 C 6.210938 -0.820312 5.6875 -0.550781 5.15625 -0.625 C 4.457031 -0.707031 3.910156 -1.453125 3.515625 -2.859375 C 3.378906 -3.304688 3.257812 -3.628906 3.15625 -3.828125 C 3.050781 -4.035156 2.96875 -4.160156 2.90625 -4.203125 C 2.84375 -4.253906 2.796875 -4.28125 2.765625 -4.28125 C 2.722656 -4.289062 2.640625 -4.25 2.515625 -4.15625 C 2.398438 -4.0625 2.222656 -3.847656 1.984375 -3.515625 C 1.753906 -3.179688 1.460938 -2.664062 1.109375 -1.96875 C 0.765625 -1.28125 0.347656 -0.328125 -0.140625 0.890625 C -0.210938 1.054688 -0.332031 1.140625 -0.5 1.140625 C -0.539062 1.140625 -0.570312 1.128906 -0.59375 1.109375 C -0.832031 1.054688 -0.9375 0.914062 -0.90625 0.6875 C -0.84375 0.113281 -0.71875 -0.539062 -0.53125 -1.28125 C -0.351562 -2.03125 -0.160156 -2.789062 0.046875 -3.5625 C 0.265625 -4.332031 0.460938 -5.019531 0.640625 -5.625 C 0.679688 -5.757812 0.71875 -5.882812 0.75 -6 C 0.789062 -6.125 0.820312 -6.238281 0.84375 -6.34375 C 0.882812 -6.457031 0.953125 -6.535156 1.046875 -6.578125 C 1.148438 -6.628906 1.25 -6.644531 1.34375 -6.625 C 1.457031 -6.59375 1.539062 -6.523438 1.59375 -6.421875 C 1.644531 -6.328125 1.648438 -6.226562 1.609375 -6.125 C 1.585938 -6.007812 1.554688 -5.894531 1.515625 -5.78125 C 1.484375 -5.664062 1.445312 -5.539062 1.40625 -5.40625 C 1.3125 -5.039062 1.203125 -4.644531 1.078125 -4.21875 C 0.953125 -3.789062 0.828125 -3.359375 0.703125 -2.921875 C 1.171875 -3.796875 1.570312 -4.378906 1.90625 -4.671875 C 2.238281 -4.960938 2.539062 -5.101562 2.8125 -5.09375 C 3.195312 -5.0625 3.5 -4.84375 3.71875 -4.4375 C 3.945312 -4.039062 4.132812 -3.582031 4.28125 -3.0625 C 4.488281 -2.34375 4.679688 -1.882812 4.859375 -1.6875 C 5.035156 -1.5 5.164062 -1.40625 5.25 -1.40625 C 5.4375 -1.375 5.648438 -1.472656 5.890625 -1.703125 C 6.128906 -1.929688 6.367188 -2.222656 6.609375 -2.578125 C 6.847656 -2.929688 7.070312 -3.28125 7.28125 -3.625 C 7.5 -3.96875 7.664062 -4.25 7.78125 -4.46875 C 7.832031 -4.5625 7.910156 -4.625 8.015625 -4.65625 C 8.128906 -4.6875 8.238281 -4.671875 8.34375 -4.609375 Z M 8.34375 -4.609375 "/></g></g></g><g fill="#dbba0d" fill-opacity="1"><g transform="translate(197.732116, 204.587348)"><g><path d="M 7.484375 -4.515625 C 7.585938 -4.441406 7.644531 -4.347656 7.65625 -4.234375 C 7.664062 -4.128906 7.640625 -4.035156 7.578125 -3.953125 C 7.210938 -3.492188 6.789062 -3.082031 6.3125 -2.71875 C 5.84375 -2.363281 5.347656 -2.097656 4.828125 -1.921875 C 4.316406 -1.753906 3.816406 -1.726562 3.328125 -1.84375 C 3.140625 -1.351562 2.867188 -0.976562 2.515625 -0.71875 C 2.160156 -0.457031 1.804688 -0.328125 1.453125 -0.328125 C 1.453125 -0.328125 1.445312 -0.328125 1.4375 -0.328125 C 1.425781 -0.328125 1.421875 -0.328125 1.421875 -0.328125 C 1.054688 -0.347656 0.726562 -0.476562 0.4375 -0.71875 C 0.15625 -0.957031 -0.0351562 -1.289062 -0.140625 -1.71875 C -0.265625 -2.195312 -0.285156 -2.65625 -0.203125 -3.09375 C -0.117188 -3.53125 0.03125 -3.910156 0.25 -4.234375 C 0.46875 -4.566406 0.71875 -4.820312 1 -5 C 1.09375 -5.070312 1.203125 -5.085938 1.328125 -5.046875 C 1.453125 -5.347656 1.625 -5.582031 1.84375 -5.75 C 2.070312 -5.914062 2.3125 -5.976562 2.5625 -5.9375 C 2.71875 -5.90625 2.882812 -5.8125 3.0625 -5.65625 C 3.238281 -5.5 3.378906 -5.21875 3.484375 -4.8125 C 3.597656 -4.40625 3.632812 -3.804688 3.59375 -3.015625 C 3.582031 -2.878906 3.5625 -2.742188 3.53125 -2.609375 C 3.90625 -2.535156 4.300781 -2.570312 4.71875 -2.71875 C 5.132812 -2.875 5.535156 -3.109375 5.921875 -3.421875 C 6.304688 -3.734375 6.644531 -4.078125 6.9375 -4.453125 C 7 -4.535156 7.082031 -4.582031 7.1875 -4.59375 C 7.300781 -4.601562 7.398438 -4.578125 7.484375 -4.515625 Z M 1.453125 -1.140625 C 1.628906 -1.140625 1.828125 -1.222656 2.046875 -1.390625 C 2.265625 -1.554688 2.445312 -1.800781 2.59375 -2.125 C 2.09375 -2.40625 1.734375 -2.722656 1.515625 -3.078125 C 1.304688 -3.441406 1.191406 -3.800781 1.171875 -4.15625 C 0.890625 -3.882812 0.703125 -3.535156 0.609375 -3.109375 C 0.515625 -2.679688 0.519531 -2.289062 0.625 -1.9375 C 0.664062 -1.789062 0.75 -1.617188 0.875 -1.421875 C 1 -1.234375 1.191406 -1.140625 1.453125 -1.140625 Z M 2.796875 -3.0625 C 2.816406 -3.613281 2.800781 -4.039062 2.75 -4.34375 C 2.707031 -4.644531 2.648438 -4.847656 2.578125 -4.953125 C 2.515625 -5.066406 2.46875 -5.132812 2.4375 -5.15625 C 2.425781 -5.15625 2.421875 -5.15625 2.421875 -5.15625 C 2.378906 -5.15625 2.316406 -5.113281 2.234375 -5.03125 C 2.148438 -4.945312 2.082031 -4.820312 2.03125 -4.65625 C 1.945312 -4.394531 1.953125 -4.109375 2.046875 -3.796875 C 2.140625 -3.484375 2.390625 -3.195312 2.796875 -2.9375 C 2.796875 -2.976562 2.796875 -3.019531 2.796875 -3.0625 Z M 2.796875 -3.0625 "/></g></g></g><g fill="#dbba0d" fill-opacity="1"><g transform="translate(204.349886, 204.587348)"><g><path d="M 16.8125 -4.8125 C 16.914062 -4.78125 16.984375 -4.710938 17.015625 -4.609375 C 17.046875 -4.503906 17.039062 -4.398438 17 -4.296875 C 15.625 -1.335938 14.253906 1.164062 12.890625 3.21875 C 11.523438 5.28125 10.210938 6.84375 8.953125 7.90625 C 7.703125 8.976562 6.53125 9.515625 5.4375 9.515625 C 5.125 9.515625 4.816406 9.46875 4.515625 9.375 C 3.765625 9.15625 3.128906 8.664062 2.609375 7.90625 C 2.097656 7.144531 1.707031 6.171875 1.4375 4.984375 C 1.164062 3.796875 1.03125 2.441406 1.03125 0.921875 C 1.03125 -0.597656 1.175781 -2.25 1.46875 -4.03125 C 1.664062 -5.226562 1.941406 -6.503906 2.296875 -7.859375 C 2.648438 -9.222656 3.054688 -10.539062 3.515625 -11.8125 C 3.773438 -12.53125 4.085938 -13.3125 4.453125 -14.15625 C 4.816406 -15.007812 5.226562 -15.847656 5.6875 -16.671875 C 6.144531 -17.503906 6.648438 -18.25 7.203125 -18.90625 C 7.640625 -19.445312 8.035156 -19.820312 8.390625 -20.03125 C 8.742188 -20.25 9.050781 -20.363281 9.3125 -20.375 C 9.570312 -20.382812 9.789062 -20.351562 9.96875 -20.28125 C 10.425781 -20.050781 10.75 -19.59375 10.9375 -18.90625 C 11.125 -18.21875 11.21875 -17.363281 11.21875 -16.34375 C 11.21875 -15.320312 11.144531 -14.195312 11 -12.96875 C 10.851562 -11.738281 10.65625 -10.472656 10.40625 -9.171875 C 10.164062 -7.867188 9.910156 -6.597656 9.640625 -5.359375 C 9.609375 -5.265625 9.546875 -5.1875 9.453125 -5.125 C 9.359375 -5.0625 9.265625 -5.039062 9.171875 -5.0625 C 9.054688 -5.09375 8.96875 -5.148438 8.90625 -5.234375 C 8.84375 -5.328125 8.828125 -5.429688 8.859375 -5.546875 C 9.390625 -7.929688 9.773438 -9.984375 10.015625 -11.703125 C 10.265625 -13.421875 10.394531 -14.835938 10.40625 -15.953125 C 10.414062 -17.066406 10.347656 -17.910156 10.203125 -18.484375 C 10.054688 -19.066406 9.863281 -19.421875 9.625 -19.546875 C 9.425781 -19.640625 9.164062 -19.582031 8.84375 -19.375 C 8.53125 -19.175781 8.1875 -18.851562 7.8125 -18.40625 C 7.289062 -17.769531 6.785156 -17.019531 6.296875 -16.15625 C 5.816406 -15.289062 5.367188 -14.34375 4.953125 -13.3125 C 4.535156 -12.28125 4.148438 -11.21875 3.796875 -10.125 C 3.441406 -9.039062 3.132812 -7.96875 2.875 -6.90625 C 2.613281 -5.84375 2.40625 -4.84375 2.25 -3.90625 C 1.976562 -2.238281 1.835938 -0.675781 1.828125 0.78125 C 1.828125 2.25 1.945312 3.5625 2.1875 4.71875 C 2.425781 5.789062 2.765625 6.660156 3.203125 7.328125 C 3.648438 8.003906 4.171875 8.429688 4.765625 8.609375 C 6.066406 9.023438 7.644531 8.265625 9.5 6.328125 C 11.675781 4.054688 13.9375 0.398438 16.28125 -4.640625 C 16.320312 -4.734375 16.394531 -4.800781 16.5 -4.84375 C 16.601562 -4.882812 16.707031 -4.875 16.8125 -4.8125 Z M 16.8125 -4.8125 "/></g></g></g><g fill="#dbba0d" fill-opacity="1"><g transform="translate(220.315258, 204.587348)"><g><path d="M 6.0625 -4.71875 C 6.15625 -4.664062 6.210938 -4.582031 6.234375 -4.46875 C 6.253906 -4.351562 6.238281 -4.25 6.1875 -4.15625 C 5.925781 -3.738281 5.59375 -3.273438 5.1875 -2.765625 C 4.789062 -2.253906 4.359375 -1.769531 3.890625 -1.3125 C 3.421875 -0.851562 2.953125 -0.46875 2.484375 -0.15625 C 2.023438 0.144531 1.601562 0.296875 1.21875 0.296875 C 1.050781 0.296875 0.90625 0.265625 0.78125 0.203125 C 0.3125 -0.00390625 0.0507812 -0.503906 0 -1.296875 C -0.0390625 -2.085938 0.125 -3.207031 0.5 -4.65625 C 0.519531 -4.757812 0.578125 -4.835938 0.671875 -4.890625 C 0.773438 -4.953125 0.875 -4.96875 0.96875 -4.9375 C 1.082031 -4.914062 1.164062 -4.851562 1.21875 -4.75 C 1.269531 -4.65625 1.285156 -4.5625 1.265625 -4.46875 C 1.046875 -3.582031 0.90625 -2.878906 0.84375 -2.359375 C 0.789062 -1.847656 0.78125 -1.460938 0.8125 -1.203125 C 0.851562 -0.941406 0.90625 -0.765625 0.96875 -0.671875 C 1.039062 -0.578125 1.082031 -0.53125 1.09375 -0.53125 C 1.269531 -0.445312 1.53125 -0.503906 1.875 -0.703125 C 2.226562 -0.910156 2.617188 -1.207031 3.046875 -1.59375 C 3.472656 -1.988281 3.898438 -2.445312 4.328125 -2.96875 C 4.765625 -3.488281 5.15625 -4.03125 5.5 -4.59375 C 5.570312 -4.6875 5.660156 -4.742188 5.765625 -4.765625 C 5.867188 -4.785156 5.96875 -4.769531 6.0625 -4.71875 Z M 1.171875 -6.375 C 0.898438 -6.382812 0.757812 -6.460938 0.75 -6.609375 C 0.75 -6.753906 0.8125 -6.898438 0.9375 -7.046875 C 1.070312 -7.203125 1.207031 -7.304688 1.34375 -7.359375 C 1.5625 -7.429688 1.722656 -7.414062 1.828125 -7.3125 C 1.929688 -7.21875 1.976562 -7.09375 1.96875 -6.9375 C 1.96875 -6.789062 1.898438 -6.65625 1.765625 -6.53125 C 1.640625 -6.40625 1.441406 -6.351562 1.171875 -6.375 Z M 1.171875 -6.375 "/></g></g></g><g fill="#dbba0d" fill-opacity="1"><g transform="translate(225.547434, 204.587348)"><g><path d="M 17.453125 -12.203125 C 17.523438 -12.117188 17.550781 -12.019531 17.53125 -11.90625 C 17.519531 -11.800781 17.46875 -11.710938 17.375 -11.640625 C 17.207031 -11.535156 17.050781 -11.546875 16.90625 -11.671875 C 16.726562 -11.734375 16.316406 -11.78125 15.671875 -11.8125 C 15.023438 -11.84375 14.21875 -11.859375 13.25 -11.859375 C 12.289062 -11.867188 11.234375 -11.863281 10.078125 -11.84375 C 8.921875 -11.832031 7.726562 -11.816406 6.5 -11.796875 C 5.28125 -11.773438 4.097656 -11.753906 2.953125 -11.734375 C 2.523438 -9.941406 2.078125 -7.992188 1.609375 -5.890625 C 1.140625 -3.785156 0.679688 -1.648438 0.234375 0.515625 C -0.359375 3.359375 -0.816406 5.6875 -1.140625 7.5 C -1.472656 9.320312 -1.6875 10.640625 -1.78125 11.453125 C -1.75 11.453125 -1.722656 11.460938 -1.703125 11.484375 C -1.585938 11.503906 -1.507812 11.566406 -1.46875 11.671875 C -1.425781 11.773438 -1.425781 11.878906 -1.46875 11.984375 C -1.550781 12.210938 -1.644531 12.425781 -1.75 12.625 C -1.851562 12.832031 -1.992188 12.9375 -2.171875 12.9375 C -2.210938 12.9375 -2.257812 12.925781 -2.3125 12.90625 C -2.507812 12.84375 -2.617188 12.695312 -2.640625 12.46875 C -2.660156 12.238281 -2.644531 11.921875 -2.59375 11.515625 C -2.53125 10.941406 -2.40625 10.109375 -2.21875 9.015625 C -2.050781 7.992188 -1.832031 6.800781 -1.5625 5.4375 C -1.300781 4.070312 -1 2.578125 -0.65625 0.953125 C -0.207031 -1.253906 0.253906 -3.445312 0.734375 -5.625 C 1.222656 -7.800781 1.6875 -9.828125 2.125 -11.703125 C 1.46875 -11.691406 0.84375 -11.675781 0.25 -11.65625 C -0.34375 -11.644531 -0.878906 -11.632812 -1.359375 -11.625 C -2.285156 -11.59375 -3.09375 -11.570312 -3.78125 -11.5625 C -4.46875 -11.550781 -4.957031 -11.546875 -5.25 -11.546875 C -5.363281 -11.546875 -5.457031 -11.582031 -5.53125 -11.65625 C -5.601562 -11.726562 -5.640625 -11.820312 -5.640625 -11.9375 C -5.640625 -12.050781 -5.601562 -12.144531 -5.53125 -12.21875 C -5.457031 -12.289062 -5.363281 -12.328125 -5.25 -12.328125 C -4.957031 -12.328125 -4.46875 -12.335938 -3.78125 -12.359375 C -3.101562 -12.378906 -2.304688 -12.40625 -1.390625 -12.4375 C -0.722656 -12.445312 -0.0820312 -12.457031 0.53125 -12.46875 C 1.15625 -12.488281 1.757812 -12.503906 2.34375 -12.515625 C 2.539062 -13.398438 2.738281 -14.226562 2.9375 -15 C 3.144531 -15.78125 3.335938 -16.5 3.515625 -17.15625 C 3.546875 -17.257812 3.609375 -17.335938 3.703125 -17.390625 C 3.796875 -17.453125 3.894531 -17.46875 4 -17.4375 C 4.101562 -17.40625 4.179688 -17.34375 4.234375 -17.25 C 4.296875 -17.15625 4.3125 -17.050781 4.28125 -16.9375 C 3.945312 -15.71875 3.566406 -14.25 3.140625 -12.53125 C 5.296875 -12.570312 7.140625 -12.601562 8.671875 -12.625 C 10.203125 -12.644531 11.484375 -12.65625 12.515625 -12.65625 C 13.546875 -12.65625 14.378906 -12.640625 15.015625 -12.609375 C 15.660156 -12.585938 16.148438 -12.554688 16.484375 -12.515625 C 16.816406 -12.484375 17.050781 -12.441406 17.1875 -12.390625 C 17.320312 -12.335938 17.410156 -12.273438 17.453125 -12.203125 Z M 17.453125 -12.203125 "/></g></g></g><g fill="#dbba0d" fill-opacity="1"><g transform="translate(228.297949, 204.587348)"><g><path d="M 10.109375 -4.546875 C 10.179688 -4.460938 10.203125 -4.363281 10.171875 -4.25 C 10.148438 -4.144531 10.097656 -4.066406 10.015625 -4.015625 C 9.003906 -3.347656 7.992188 -2.628906 6.984375 -1.859375 C 5.972656 -1.097656 4.984375 -0.238281 4.015625 0.71875 C 3.203125 5.59375 2.3125 9.546875 1.34375 12.578125 C 1.132812 13.203125 0.910156 13.832031 0.671875 14.46875 C 0.429688 15.113281 0.171875 15.710938 -0.109375 16.265625 C -0.390625 16.828125 -0.6875 17.296875 -1 17.671875 C -1.320312 18.054688 -1.648438 18.296875 -1.984375 18.390625 C -2.078125 18.421875 -2.179688 18.4375 -2.296875 18.4375 C -2.609375 18.4375 -2.882812 18.296875 -3.125 18.015625 C -3.414062 17.640625 -3.601562 17.070312 -3.6875 16.3125 C -3.78125 15.5625 -3.765625 14.675781 -3.640625 13.65625 C -3.515625 12.632812 -3.273438 11.550781 -2.921875 10.40625 C -2.578125 9.257812 -2.109375 8.125 -1.515625 7 C -0.796875 5.625 -0.0351562 4.390625 0.765625 3.296875 C 1.578125 2.210938 2.421875 1.222656 3.296875 0.328125 C 3.492188 -0.960938 3.695312 -2.320312 3.90625 -3.75 C 3.726562 -3.46875 3.535156 -3.1875 3.328125 -2.90625 C 3.117188 -2.625 2.910156 -2.359375 2.703125 -2.109375 C 2.429688 -1.773438 2.175781 -1.5625 1.9375 -1.46875 C 1.707031 -1.375 1.507812 -1.335938 1.34375 -1.359375 C 1.175781 -1.390625 1.050781 -1.429688 0.96875 -1.484375 C 0.664062 -1.671875 0.457031 -1.992188 0.34375 -2.453125 C 0.238281 -2.910156 0.226562 -3.457031 0.3125 -4.09375 C 0.394531 -4.726562 0.570312 -5.390625 0.84375 -6.078125 C 0.882812 -6.179688 0.957031 -6.25 1.0625 -6.28125 C 1.164062 -6.320312 1.265625 -6.320312 1.359375 -6.28125 C 1.460938 -6.25 1.535156 -6.179688 1.578125 -6.078125 C 1.628906 -5.984375 1.632812 -5.878906 1.59375 -5.765625 C 1.3125 -5.117188 1.140625 -4.535156 1.078125 -4.015625 C 1.023438 -3.503906 1.03125 -3.085938 1.09375 -2.765625 C 1.164062 -2.441406 1.265625 -2.242188 1.390625 -2.171875 C 1.535156 -2.078125 1.769531 -2.222656 2.09375 -2.609375 C 2.363281 -2.941406 2.632812 -3.304688 2.90625 -3.703125 C 3.1875 -4.097656 3.441406 -4.476562 3.671875 -4.84375 C 3.898438 -5.21875 4.082031 -5.519531 4.21875 -5.75 C 4.332031 -5.945312 4.492188 -6.007812 4.703125 -5.9375 C 4.898438 -5.851562 4.988281 -5.707031 4.96875 -5.5 C 4.726562 -3.78125 4.484375 -2.144531 4.234375 -0.59375 C 5.109375 -1.414062 5.992188 -2.15625 6.890625 -2.8125 C 7.785156 -3.476562 8.679688 -4.097656 9.578125 -4.671875 C 9.660156 -4.734375 9.753906 -4.753906 9.859375 -4.734375 C 9.972656 -4.710938 10.054688 -4.648438 10.109375 -4.546875 Z M 0.578125 12.34375 C 1.460938 9.59375 2.285156 6.070312 3.046875 1.78125 C 2.347656 2.550781 1.675781 3.394531 1.03125 4.3125 C 0.382812 5.226562 -0.226562 6.242188 -0.8125 7.359375 C -1.425781 8.566406 -1.898438 9.726562 -2.234375 10.84375 C -2.566406 11.957031 -2.773438 12.972656 -2.859375 13.890625 C -2.953125 14.816406 -2.957031 15.59375 -2.875 16.21875 C -2.800781 16.851562 -2.675781 17.28125 -2.5 17.5 C -2.4375 17.582031 -2.378906 17.625 -2.328125 17.625 C -2.273438 17.632812 -2.238281 17.632812 -2.21875 17.625 C -2.15625 17.613281 -2.046875 17.546875 -1.890625 17.421875 C -1.742188 17.304688 -1.546875 17.070312 -1.296875 16.71875 C -1.054688 16.375 -0.773438 15.851562 -0.453125 15.15625 C -0.140625 14.457031 0.203125 13.519531 0.578125 12.34375 Z M 0.578125 12.34375 "/></g></g></g></svg>