<svg xmlns="http://www.w3.org/2000/svg" xmlns:xlink="http://www.w3.org/1999/xlink" width="1080" zoomAndPan="magnify" viewBox="0 0 810 809.999993" height="1080" preserveAspectRatio="xMidYMid meet" version="1.0"><defs><filter x="0%" y="0%" width="100%" height="100%" id="a560f66ee2"><feColorMatrix values="0 0 0 0 1 0 0 0 0 1 0 0 0 0 1 0 0 0 1 0" color-interpolation-filters="sRGB"/></filter><clipPath id="56fa1c74dc"><path d="M 11.5625 36.53125 L 585 36.53125 L 585 694.28125 L 11.5625 694.28125 Z M 11.5625 36.53125 " clip-rule="nonzero"/></clipPath><mask id="5788563580"><g filter="url(#a560f66ee2)"><rect x="-81" width="972" fill="#000000" y="-80.999999" height="971.999992" fill-opacity="0.09"/></g></mask><clipPath id="56d166a3c5"><path d="M 1 0.28125 L 589 0.28125 L 589 363.878906 L 1 363.878906 Z M 1 0.28125 " clip-rule="nonzero"/></clipPath><clipPath id="13de851b25"><rect x="0" width="590" y="0" height="364"/></clipPath></defs><path fill="#c31828" d="M 207.945312 658.46875 C 193.984375 589.941406 169.371094 532.914062 139.558594 480.058594 C 117.445312 440.855469 91.832031 404.667969 68.128906 366.648438 C 60.21875 353.957031 53.386719 340.546875 45.785156 327.378906 C 30.582031 301.039062 18.257812 270.503906 19.042969 230.894531 C 19.804688 192.195312 31 161.148438 47.140625 135.765625 C 73.6875 94.015625 118.152344 59.785156 177.816406 50.789062 C 226.597656 43.4375 272.335938 55.863281 304.765625 74.828125 C 331.269531 90.324219 351.796875 111.027344 367.398438 135.425781 C 383.679688 160.890625 394.894531 190.976562 395.835938 230.214844 C 396.316406 250.320312 393.023438 268.9375 388.386719 284.382812 C 383.691406 300.015625 376.144531 313.082031 369.429688 327.039062 C 356.316406 354.285156 339.882812 379.246094 323.386719 404.226562 C 274.253906 478.628906 228.136719 554.503906 207.941406 658.472656 Z M 207.945312 658.46875 " fill-opacity="1" fill-rule="evenodd"/><g clip-path="url(#56fa1c74dc)"><path stroke-linecap="butt" transform="matrix(0.360106, 0, 0, 0.360106, -55.271826, -3.981205)" fill="none" stroke-linejoin="miter" d="M 730.943993 1839.598359 C 692.175 1649.300529 623.824853 1490.937762 541.036673 1344.160133 C 479.628931 1235.294544 408.501822 1134.803232 342.679145 1029.224438 C 320.712941 993.980885 301.74065 956.74139 280.6314 920.174441 C 238.412899 847.029696 204.189012 762.234727 206.369361 652.240997 C 208.484625 544.774737 239.573582 458.558745 284.395485 388.071639 C 358.115148 272.133475 481.59233 177.076764 647.277165 152.094953 C 782.740843 131.679943 909.754312 166.185866 999.810322 218.850516 C 1073.410663 261.88258 1130.414317 319.374372 1173.739263 387.127906 C 1218.951676 457.842809 1250.094871 541.390315 1252.70912 650.353531 C 1254.043364 706.185654 1244.898915 757.884876 1232.022923 800.775922 C 1218.984219 844.187649 1198.026833 880.472563 1179.379967 919.230708 C 1142.964884 994.892075 1097.329418 1064.207651 1051.520392 1133.577463 C 915.080439 1340.189945 787.014761 1550.891938 730.933145 1839.609206 Z M 730.943993 1839.598359 " stroke="#000000" stroke-width="37" stroke-opacity="1" stroke-miterlimit="10"/></g><g mask="url(#5788563580)"><g transform="matrix(1, 0, 0, 1, 207, 329)"><g clip-path="url(#13de851b25)"><g clip-path="url(#56d166a3c5)"><path fill="#000000" d="M 1.101562 363.605469 C 48.492188 320.085938 77.195312 278.628906 98.019531 237.394531 C 113.46875 206.804688 123.421875 176.476562 136.535156 145.90625 C 140.910156 135.699219 146.800781 125.535156 151.847656 115.1875 C 161.933594 94.5 178.011719 72.648438 212.714844 51.054688 C 246.621094 29.957031 282.5625 17.292969 317.714844 9.75 C 375.53125 -2.652344 441.691406 -3.683594 498.699219 15.363281 C 545.3125 30.9375 572.402344 56.226562 582.886719 79.773438 C 591.449219 99.015625 590.601562 118.730469 582.507812 138.507812 C 574.0625 159.148438 557.457031 180.300781 524.496094 202.386719 C 507.609375 213.699219 488.882812 222.671875 471.773438 229.347656 C 454.457031 236.101562 436.988281 240.289062 419.4375 245.304688 C 385.1875 255.097656 350.148438 262.285156 315.046875 269.460938 C 210.5 290.828125 107.175781 314.230469 1.105469 363.601562 Z M 1.101562 363.605469 " fill-opacity="1" fill-rule="evenodd"/></g></g></g></g><path fill="#000000" d="M 273.460938 230.464844 C 273.460938 229.386719 273.433594 228.304688 273.382812 227.226562 C 273.328125 226.148438 273.25 225.070312 273.144531 223.996094 C 273.039062 222.917969 272.90625 221.847656 272.746094 220.777344 C 272.589844 219.710938 272.402344 218.644531 272.191406 217.585938 C 271.980469 216.527344 271.746094 215.472656 271.484375 214.425781 C 271.21875 213.375 270.933594 212.335938 270.617188 211.300781 C 270.304688 210.265625 269.964844 209.242188 269.601562 208.222656 C 269.238281 207.207031 268.847656 206.199219 268.4375 205.199219 C 268.023438 204.203125 267.585938 203.214844 267.121094 202.238281 C 266.660156 201.261719 266.175781 200.296875 265.664062 199.34375 C 265.15625 198.390625 264.625 197.453125 264.070312 196.523438 C 263.511719 195.597656 262.933594 194.683594 262.335938 193.785156 C 261.734375 192.886719 261.113281 192.003906 260.46875 191.136719 C 259.824219 190.269531 259.160156 189.417969 258.476562 188.582031 C 257.789062 187.746094 257.085938 186.929688 256.359375 186.128906 C 255.632812 185.328125 254.886719 184.546875 254.125 183.78125 C 253.359375 183.019531 252.578125 182.273438 251.777344 181.546875 C 250.976562 180.824219 250.160156 180.117188 249.324219 179.429688 C 248.488281 178.746094 247.636719 178.082031 246.769531 177.4375 C 245.902344 176.792969 245.019531 176.171875 244.121094 175.570312 C 243.222656 174.972656 242.308594 174.394531 241.382812 173.839844 C 240.457031 173.28125 239.515625 172.75 238.5625 172.242188 C 237.609375 171.730469 236.644531 171.246094 235.667969 170.785156 C 234.691406 170.324219 233.703125 169.882812 232.707031 169.472656 C 231.707031 169.058594 230.699219 168.667969 229.683594 168.304688 C 228.664062 167.941406 227.640625 167.601562 226.605469 167.289062 C 225.570312 166.976562 224.53125 166.6875 223.484375 166.425781 C 222.433594 166.160156 221.382812 165.925781 220.320312 165.714844 C 219.261719 165.503906 218.199219 165.320312 217.128906 165.160156 C 216.058594 165 214.988281 164.871094 213.914062 164.761719 C 212.835938 164.65625 211.761719 164.578125 210.679688 164.523438 C 209.601562 164.472656 208.523438 164.445312 207.441406 164.445312 C 206.359375 164.445312 205.28125 164.472656 204.203125 164.523438 C 203.121094 164.578125 202.046875 164.65625 200.96875 164.761719 C 199.894531 164.871094 198.824219 165 197.753906 165.160156 C 196.6875 165.320312 195.621094 165.503906 194.5625 165.714844 C 193.5 165.925781 192.449219 166.160156 191.398438 166.425781 C 190.351562 166.6875 189.3125 166.976562 188.277344 167.289062 C 187.242188 167.601562 186.21875 167.941406 185.199219 168.304688 C 184.183594 168.667969 183.175781 169.058594 182.175781 169.472656 C 181.179688 169.882812 180.191406 170.324219 179.214844 170.785156 C 178.238281 171.246094 177.273438 171.730469 176.320312 172.242188 C 175.367188 172.75 174.425781 173.28125 173.5 173.839844 C 172.574219 174.394531 171.660156 174.972656 170.761719 175.570312 C 169.863281 176.171875 168.980469 176.792969 168.113281 177.4375 C 167.246094 178.082031 166.394531 178.746094 165.558594 179.429688 C 164.722656 180.117188 163.90625 180.824219 163.105469 181.546875 C 162.304688 182.273438 161.523438 183.019531 160.757812 183.78125 C 159.996094 184.546875 159.25 185.328125 158.523438 186.128906 C 157.796875 186.929688 157.09375 187.746094 156.40625 188.582031 C 155.722656 189.417969 155.058594 190.269531 154.414062 191.136719 C 153.769531 192.003906 153.148438 192.886719 152.546875 193.785156 C 151.949219 194.683594 151.371094 195.597656 150.8125 196.523438 C 150.257812 197.453125 149.726562 198.390625 149.21875 199.34375 C 148.707031 200.296875 148.222656 201.261719 147.761719 202.238281 C 147.296875 203.214844 146.859375 204.203125 146.445312 205.199219 C 146.035156 206.199219 145.644531 207.207031 145.28125 208.222656 C 144.917969 209.242188 144.578125 210.265625 144.265625 211.300781 C 143.949219 212.335938 143.664062 213.375 143.398438 214.425781 C 143.136719 215.472656 142.902344 216.527344 142.691406 217.585938 C 142.480469 218.644531 142.292969 219.710938 142.136719 220.777344 C 141.976562 221.847656 141.84375 222.917969 141.738281 223.996094 C 141.632812 225.070312 141.554688 226.148438 141.5 227.226562 C 141.449219 228.304688 141.421875 229.386719 141.421875 230.464844 C 141.421875 231.546875 141.449219 232.625 141.5 233.707031 C 141.554688 234.785156 141.632812 235.863281 141.738281 236.9375 C 141.84375 238.011719 141.976562 239.082031 142.136719 240.152344 C 142.292969 241.222656 142.480469 242.285156 142.691406 243.34375 C 142.902344 244.40625 143.136719 245.460938 143.398438 246.507812 C 143.664062 247.554688 143.949219 248.597656 144.265625 249.628906 C 144.578125 250.664062 144.917969 251.691406 145.28125 252.707031 C 145.644531 253.722656 146.035156 254.730469 146.445312 255.730469 C 146.859375 256.730469 147.296875 257.714844 147.761719 258.691406 C 148.222656 259.667969 148.707031 260.632812 149.21875 261.585938 C 149.726562 262.539062 150.257812 263.480469 150.8125 264.40625 C 151.371094 265.332031 151.949219 266.246094 152.546875 267.144531 C 153.148438 268.042969 153.769531 268.925781 154.414062 269.792969 C 155.058594 270.660156 155.722656 271.511719 156.40625 272.347656 C 157.09375 273.183594 157.796875 274 158.523438 274.800781 C 159.25 275.601562 159.996094 276.386719 160.757812 277.148438 C 161.523438 277.914062 162.304688 278.65625 163.105469 279.382812 C 163.90625 280.109375 164.722656 280.8125 165.558594 281.5 C 166.394531 282.183594 167.246094 282.851562 168.113281 283.492188 C 168.980469 284.136719 169.863281 284.757812 170.761719 285.359375 C 171.660156 285.960938 172.574219 286.539062 173.5 287.09375 C 174.425781 287.648438 175.367188 288.179688 176.320312 288.691406 C 177.273438 289.199219 178.238281 289.683594 179.214844 290.148438 C 180.191406 290.609375 181.179688 291.046875 182.175781 291.460938 C 183.175781 291.875 184.183594 292.261719 185.199219 292.625 C 186.21875 292.992188 187.242188 293.328125 188.277344 293.644531 C 189.3125 293.957031 190.351562 294.246094 191.398438 294.507812 C 192.449219 294.769531 193.5 295.007812 194.5625 295.21875 C 195.621094 295.429688 196.6875 295.613281 197.753906 295.769531 C 198.824219 295.929688 199.894531 296.0625 200.96875 296.167969 C 202.046875 296.273438 203.121094 296.351562 204.203125 296.40625 C 205.28125 296.460938 206.359375 296.484375 207.441406 296.484375 C 208.523438 296.484375 209.601562 296.460938 210.679688 296.40625 C 211.761719 296.351562 212.835938 296.273438 213.914062 296.167969 C 214.988281 296.0625 216.058594 295.929688 217.128906 295.769531 C 218.199219 295.613281 219.261719 295.429688 220.320312 295.21875 C 221.382812 295.007812 222.433594 294.769531 223.484375 294.507812 C 224.53125 294.246094 225.570312 293.957031 226.605469 293.644531 C 227.640625 293.328125 228.664062 292.992188 229.683594 292.625 C 230.699219 292.261719 231.707031 291.875 232.707031 291.460938 C 233.703125 291.046875 234.691406 290.609375 235.667969 290.148438 C 236.644531 289.683594 237.609375 289.199219 238.5625 288.691406 C 239.515625 288.179688 240.457031 287.648438 241.382812 287.09375 C 242.308594 286.539062 243.222656 285.960938 244.121094 285.359375 C 245.019531 284.757812 245.902344 284.136719 246.769531 283.492188 C 247.636719 282.851562 248.488281 282.183594 249.324219 281.5 C 250.160156 280.8125 250.976562 280.109375 251.777344 279.382812 C 252.578125 278.65625 253.359375 277.914062 254.125 277.148438 C 254.886719 276.386719 255.632812 275.601562 256.359375 274.800781 C 257.085938 274 257.789062 273.183594 258.476562 272.347656 C 259.160156 271.511719 259.824219 270.660156 260.46875 269.792969 C 261.113281 268.925781 261.734375 268.042969 262.335938 267.144531 C 262.933594 266.246094 263.511719 265.332031 264.070312 264.40625 C 264.625 263.480469 265.15625 262.539062 265.664062 261.585938 C 266.175781 260.632812 266.660156 259.667969 267.121094 258.691406 C 267.585938 257.714844 268.023438 256.730469 268.4375 255.730469 C 268.847656 254.730469 269.238281 253.722656 269.601562 252.707031 C 269.964844 251.691406 270.304688 250.664062 270.617188 249.628906 C 270.933594 248.597656 271.21875 247.554688 271.484375 246.507812 C 271.746094 245.460938 271.980469 244.40625 272.191406 243.34375 C 272.402344 242.285156 272.589844 241.222656 272.746094 240.152344 C 272.90625 239.082031 273.039062 238.011719 273.144531 236.9375 C 273.25 235.863281 273.328125 234.785156 273.382812 233.707031 C 273.433594 232.625 273.460938 231.546875 273.460938 230.464844 " fill-opacity="1" fill-rule="evenodd"/></svg>